<?xml version="1.0" encoding="utf-8"?>
<!-- Generator: Adobe Illustrator 25.4.1, SVG Export Plug-In . SVG Version: 6.00 Build 0)  -->
<svg version="1.1" id="Calque_1" xmlns="http://www.w3.org/2000/svg" xmlns:xlink="http://www.w3.org/1999/xlink" x="0px" y="0px"
	 viewBox="0 0 91.94 100" style="enable-background:new 0 0 91.94 100;" xml:space="preserve">
<style type="text/css">
	.st0{fill:#6DA02F;}
	.st1{fill:#3B3229;}
	.st2{fill:#DFD9C6;}
</style>
<g>
	<path class="st0" d="M0.69,58.83l20.7-5.98l-0.82-6.95c0,0,14.91-3.59,26.06-3.59s26.06,3,26.06,3v5.89l18.09,6.4
		c0,0-5.85,1.52-7.14,4.15l0.21,12.34c0,0-2.11-2.49-3.92-3.42c-1.81-0.93-12.85-6.54-12.85-6.54v-5.5c0,0-14.59-0.72-18.99-0.69
		c-4.4,0.04-21.4,1.7-21.4,1.7l0.87,5.87L6.69,72.59c0,0,2.17-9.83,1.87-10.2C8.26,62.02,0.69,58.83,0.69,58.83z"/>
	<g>
		<path class="st1" d="M46.96,61.62c-0.37,0.14-0.63,0.39-0.59,0.58c0.02,0.08,0.05,0.61,0.06,1.18c0.01,0.57,0.05,1.24,0.08,1.5
			c0.03,0.25,0.07,0.93,0.09,1.5c0.02,0.57,0.05,1.23,0.08,1.47c0.03,0.24,0.06,0.63,0.06,0.88c0,0.24,0.03,0.7,0.06,1.01
			c0.03,0.31,0.07,0.89,0.09,1.28c0.02,0.4,0.04,0.89,0.06,1.1c0.04,0.54,0.32,1.2,0.51,1.2c0.03,0,0.13,0.06,0.22,0.12
			c0.09,0.07,0.19,0.11,0.2,0.09c0.02-0.02,0.07-0.01,0.11,0.03c0.12,0.1,0.6,0.01,0.6-0.11c0-0.05,0.02-0.19,0.03-0.3
			c0.06-0.45,0.02-1.88-0.06-2.01c-0.02-0.03-0.04-0.58-0.06-1.24c-0.02-0.66-0.05-1.22-0.06-1.25c-0.05-0.07-0.07-0.87-0.02-0.81
			c0.13,0.16,0.83,1.28,1,1.61c0.11,0.21,0.23,0.43,0.26,0.48c0.2,0.33,0.82,1.45,1.06,1.9c0.16,0.3,0.33,0.61,0.39,0.69
			c0.05,0.08,0.26,0.41,0.46,0.74c0.46,0.77,0.87,1.33,0.96,1.33c0.04,0,0.07,0.05,0.07,0.11c-0.01,0.13,0.24,0.46,0.34,0.46
			c0.04,0,0.07,0.07,0.07,0.15c0,0.11,0.07,0.19,0.24,0.3c0.13,0.09,0.3,0.2,0.36,0.26c0.06,0.06,0.14,0.1,0.17,0.1
			c0.03,0,0.17,0.06,0.3,0.13c0.2,0.11,0.25,0.11,0.33,0.05c0.1-0.09,0.13-0.32,0.03-0.38c-0.03-0.02-0.06-0.08-0.06-0.13
			c0-0.08-0.2-0.37-0.91-1.32c-0.06-0.07-0.13-0.16-0.16-0.2c-0.03-0.04-0.11-0.16-0.16-0.27c-0.05-0.11-0.16-0.27-0.23-0.35
			c-0.07-0.08-0.15-0.21-0.17-0.29c-0.02-0.08-0.13-0.28-0.24-0.45c-0.12-0.17-0.26-0.42-0.33-0.55c-0.19-0.37-0.3-0.57-0.53-0.91
			c-0.12-0.18-0.21-0.35-0.21-0.38c0-0.03-0.05-0.1-0.12-0.16c-0.06-0.06-0.12-0.13-0.12-0.16c0-0.15-0.59-1.21-0.82-1.46
			c-0.06-0.07-0.24-0.34-0.39-0.61c-0.15-0.26-0.3-0.51-0.33-0.54c-0.03-0.04-0.1-0.15-0.16-0.26c-0.06-0.11-0.18-0.31-0.27-0.44
			l-0.17-0.25l0.21-0.24c0.11-0.13,0.29-0.33,0.38-0.43c0.09-0.1,0.17-0.22,0.17-0.25c0-0.03,0.05-0.13,0.1-0.21
			c0.19-0.28,0.27-0.61,0.28-1.12c0.01-0.7-0.19-1.9-0.33-2.01c-0.02-0.02-0.1-0.13-0.18-0.26c-0.31-0.5-0.82-0.77-1.42-0.77
			c-0.26,0-0.46-0.03-0.54-0.08C47.56,61.53,47.25,61.51,46.96,61.62L46.96,61.62z M48.54,62.47c0.22,0.04,0.42,0.27,0.57,0.64
			c0.1,0.27,0.13,0.45,0.13,1.02l0.01,0.69l-0.24,0.4c-0.23,0.39-0.51,0.72-0.6,0.72c-0.06,0-0.1-0.11-0.14-0.41
			c-0.06-0.42-0.08-0.8-0.04-0.83c0.02-0.01,0.03-0.18,0.02-0.36c-0.01-0.18-0.02-0.58-0.03-0.88c-0.01-0.32-0.04-0.62-0.09-0.74
			c-0.1-0.25-0.06-0.38,0.12-0.33C48.33,62.43,48.45,62.46,48.54,62.47L48.54,62.47z"/>
		<path class="st1" d="M57.74,61.66c-0.08,0.05-0.18,0.17-0.22,0.27c-0.21,0.48-0.42,0.9-0.59,1.19c-0.1,0.18-0.29,0.54-0.43,0.81
			c-0.3,0.59-0.88,1.46-1,1.48c-0.05,0.01-0.12-0.06-0.16-0.17c-0.04-0.1-0.1-0.24-0.13-0.32c-0.03-0.07-0.08-0.19-0.1-0.26
			c-0.03-0.07-0.07-0.23-0.09-0.37c-0.03-0.25-0.29-0.86-0.39-0.92c-0.03-0.02-0.04-0.05-0.02-0.08c0.05-0.09-0.24-0.56-0.4-0.63
			c-0.09-0.04-0.23-0.15-0.31-0.24c-0.08-0.09-0.38-0.28-0.67-0.43c-0.51-0.25-0.54-0.26-0.77-0.2c-0.13,0.04-0.25,0.09-0.27,0.12
			c-0.02,0.03,0.02,0.18,0.09,0.32c0.12,0.24,0.13,0.31,0.09,0.9c-0.02,0.35-0.05,1.16-0.07,1.79c-0.02,0.63-0.06,1.33-0.09,1.55
			c-0.03,0.22-0.07,1.23-0.09,2.25l-0.03,1.84l0.15,0.26c0.08,0.14,0.19,0.34,0.25,0.45c0.06,0.11,0.14,0.19,0.2,0.19
			c0.06,0,0.17,0.07,0.25,0.16l0.15,0.16l0.14-0.16c0.07-0.09,0.15-0.16,0.18-0.16c0.05,0,0.31-0.29,0.31-0.35
			c0-0.03-0.04-0.14-0.09-0.26c-0.06-0.14-0.07-0.23-0.03-0.27c0.04-0.04,0.02-0.12-0.04-0.25c-0.09-0.18-0.09-0.2,0.01-0.27
			c0.09-0.07,0.11-0.19,0.13-0.91c0.01-0.45,0.05-1.12,0.08-1.46c0.03-0.35,0.06-0.9,0.05-1.24c0-0.33,0.01-0.65,0.04-0.72
			c0.03-0.06,0.05-0.29,0.05-0.5c0-0.21,0.02-0.39,0.03-0.39c0.07,0,0.65,1.41,0.72,1.74c0.04,0.18,0.36,0.56,0.67,0.77
			c0.17,0.12,0.25,0.14,0.41,0.11c0.23-0.04,0.37-0.18,0.56-0.55c0.07-0.14,0.17-0.34,0.22-0.43c0.05-0.1,0.11-0.21,0.13-0.26
			c0.02-0.05,0.08-0.17,0.13-0.27c0.05-0.1,0.1-0.21,0.1-0.24c0-0.03,0.04-0.12,0.1-0.18c0.1-0.11,0.21-0.3,0.58-0.94
			c0.09-0.15,0.17-0.27,0.2-0.27c0.07,0,0.08,0.77,0,1.32c-0.12,0.94-0.33,5.37-0.27,6.02c0.02,0.19,0.05,0.86,0.08,1.49
			c0.05,1.08,0.06,1.16,0.21,1.44c0.09,0.16,0.18,0.35,0.22,0.42c0.03,0.07,0.09,0.13,0.13,0.13c0.04,0,0.08,0.04,0.1,0.08
			c0.02,0.06,0.11,0.08,0.31,0.06c0.35-0.02,0.51-0.2,0.44-0.46c-0.02-0.1-0.04-0.7-0.04-1.35c0-0.92-0.01-1.22-0.08-1.34
			c-0.05-0.09-0.07-0.18-0.06-0.21c0.04-0.06,0.04-1.23,0.01-1.81c-0.01-0.22-0.01-0.43,0.01-0.46c0.03-0.05,0.06-0.45,0.09-1.46
			c0.01-0.26,0.03-0.61,0.05-0.78c0.02-0.17,0.01-0.37-0.02-0.46c-0.04-0.1-0.04-0.19-0.01-0.23c0.05-0.06,0.08-0.34,0.15-1.19
			c0.02-0.21,0.04-0.95,0.06-1.66c0.01-0.71,0.03-1.3,0.05-1.31c0.01-0.01-0.01-0.2-0.04-0.41c-0.06-0.39-0.07-0.39-0.29-0.47
			C58.5,61.57,57.91,61.56,57.74,61.66L57.74,61.66z"/>
		<path class="st1" d="M41.97,61.82c-0.12,0.07-0.17,0.2-0.36,0.96c-0.28,1.14-0.51,2.18-0.57,2.61c-0.03,0.19-0.1,0.64-0.16,1.01
			c-0.06,0.36-0.14,0.88-0.18,1.15c-0.03,0.27-0.11,0.84-0.17,1.27c-0.06,0.43-0.11,0.82-0.11,0.86c0,0.05-0.04,0.31-0.09,0.6
			c-0.05,0.28-0.08,0.53-0.06,0.56c0.02,0.03,0.01,0.15-0.02,0.27c-0.03,0.12-0.07,0.42-0.09,0.68c-0.02,0.25-0.06,0.68-0.09,0.95
			c-0.09,0.73-0.15,1.53-0.15,1.99c0,0.34,0.02,0.43,0.14,0.6c0.08,0.1,0.24,0.24,0.35,0.3c0.28,0.15,0.42,0.24,0.46,0.29
			c0.02,0.02,0.1,0.06,0.19,0.08c0.14,0.04,0.16,0.02,0.2-0.12c0.02-0.09,0.07-0.2,0.1-0.24c0.07-0.08,0.07-0.14,0.02-1.65
			c-0.02-0.51-0.01-0.95,0.02-0.98c0.04-0.05,0.09-0.35,0.2-1.24c0.08-0.62,0.14-1.27,0.14-1.41c0-0.1,0.02-0.26,0.06-0.38
			c0.03-0.11,0.06-0.39,0.07-0.6c0-0.22,0.02-0.43,0.04-0.46c0.02-0.03,0.03-0.15,0.03-0.26c0-0.2,0.01-0.2,0.28-0.24
			c0.16-0.02,0.32-0.08,0.38-0.13c0.05-0.05,0.15-0.09,0.21-0.09c0.06,0,0.22-0.05,0.36-0.12c0.29-0.13,0.29-0.13,0.29-0.06
			c0,0.03,0.03,0.13,0.07,0.22c0.04,0.09,0.07,0.2,0.08,0.25c0.02,0.17,0.16,0.65,0.21,0.71c0.03,0.03,0.05,0.13,0.05,0.22
			c0,0.09,0.04,0.25,0.08,0.35c0.05,0.1,0.16,0.5,0.26,0.9c0.23,0.92,0.43,1.69,0.61,2.27c0.07,0.25,0.19,0.66,0.26,0.89
			c0.07,0.24,0.18,0.56,0.25,0.72c0.07,0.16,0.14,0.33,0.16,0.39c0.05,0.16,0.61,0.55,0.82,0.6c0.17,0.03,0.22,0.01,0.33-0.11
			c0.07-0.08,0.15-0.2,0.17-0.28c0.04-0.16-0.08-0.85-0.15-0.85c-0.03,0-0.05-0.04-0.05-0.1c0-0.06-0.05-0.23-0.11-0.4
			c-0.09-0.25-0.17-0.59-0.21-0.85c0-0.03-0.03-0.1-0.05-0.14c-0.04-0.09-0.13-0.4-0.36-1.18c-0.07-0.25-0.18-0.56-0.23-0.69
			c-0.06-0.13-0.11-0.3-0.11-0.37c-0.02-0.24-0.12-0.57-0.22-0.71c-0.05-0.07-0.11-0.26-0.13-0.41c-0.02-0.16-0.07-0.35-0.1-0.43
			c-0.06-0.15-0.11-0.35-0.25-0.89c-0.16-0.66-0.19-0.81-0.2-1.18c-0.01-0.21-0.04-0.42-0.07-0.49c-0.03-0.06-0.06-0.21-0.07-0.33
			c-0.01-0.12-0.06-0.34-0.11-0.49c-0.05-0.14-0.07-0.3-0.06-0.35c0.02-0.04,0.01-0.13-0.02-0.18c-0.03-0.05-0.08-0.37-0.12-0.7
			c-0.06-0.6-0.15-1.02-0.24-1.12c-0.02-0.03-0.02-0.1,0.02-0.15c0.08-0.13-0.07-0.36-0.29-0.46c-0.16-0.07-0.23-0.2-0.23-0.44
			c0-0.13-0.18-0.28-0.49-0.41C42.76,61.71,42.15,61.72,41.97,61.82L41.97,61.82z M43.05,65.94c0.16,0.83,0.16,0.83-0.11,0.79
			c-0.13-0.02-0.33-0.05-0.46-0.07c-0.27-0.04-0.29-0.12-0.14-0.54c0.05-0.14,0.1-0.37,0.11-0.51c0.01-0.14,0.05-0.28,0.08-0.31
			c0.04-0.04,0.06-0.12,0.06-0.2s0.03-0.19,0.07-0.26c0.06-0.12,0.07-0.1,0.17,0.19C42.89,65.2,42.99,65.61,43.05,65.94L43.05,65.94
			z"/>
		<path class="st1" d="M35.56,61.96c-0.15,0.1-0.16,0.16-0.08,0.49c0.02,0.09,0.01,0.32-0.02,0.52c-0.06,0.34-0.14,1.35-0.21,2.57
			c-0.19,3.36-0.19,3.21-0.16,7.67c0.01,0.82,0.12,1.06,0.71,1.5c0.7,0.52,0.72,0.53,1.08,0.51c0.26-0.01,0.35-0.04,0.45-0.17
			c0.15-0.18,0.15-0.2,0.05-0.44c-0.12-0.28-0.2-0.67-0.17-0.9c0.01-0.11-0.03-0.48-0.09-0.81c-0.06-0.33-0.1-0.66-0.09-0.73
			c0.02-0.07,0-0.16-0.03-0.21c-0.04-0.05-0.05-0.13-0.01-0.22c0.04-0.12,0.09-0.78,0.07-1.03c-0.06-0.78-0.07-1.19-0.06-1.57
			c0.01-0.22,0.15-0.32,0.56-0.36c0.51-0.06,0.97-0.27,1.01-0.47c0.07-0.39-0.41-0.94-0.95-1.08c-0.18-0.05-0.36-0.1-0.4-0.13
			c-0.06-0.04-0.05-0.32,0.04-1c0.02-0.14,0.03-0.32,0.03-0.4c-0.02-0.6,0-1.39,0.03-1.58c0.04-0.2,0.06-0.23,0.21-0.25
			c0.1-0.01,0.2-0.04,0.23-0.07c0.03-0.03,0.13-0.05,0.21-0.05s0.18-0.03,0.2-0.06c0.02-0.03,0.1-0.05,0.18-0.04
			c0.07,0.01,0.17-0.01,0.2-0.05c0.04-0.05,0.16-0.06,0.36-0.05c0.33,0.03,0.35,0.02,0.57-0.27c0.12-0.16,0.14-0.24,0.11-0.41
			c-0.05-0.26-0.49-0.79-0.77-0.93c-0.25-0.12-0.97-0.13-1.67-0.01c-0.29,0.05-0.55,0.06-0.61,0.04c-0.05-0.03-0.26-0.06-0.47-0.08
			C35.8,61.87,35.68,61.88,35.56,61.96L35.56,61.96z"/>
	</g>
	<path class="st1" d="M43.76,41.46c-0.02,0.02-0.73,0.06-1.58,0.09c-3.49,0.12-6.56,0.41-11.31,1.05c-0.77,0.11-1.55,0.21-1.73,0.23
		c-1.23,0.16-2.72,0.42-4.22,0.76c-0.45,0.1-1.24,0.22-1.75,0.28c-1.51,0.15-2.32,0.44-3.09,1.08c-0.54,0.45-0.6,0.69-0.25,1
		c0.13,0.11,0.23,0.29,0.23,0.41c0,0.26,0.27,1.52,0.73,3.38c0.36,1.46,0.45,2.07,0.34,2.19c-0.12,0.12-1.77,0.66-2.61,0.85
		c-0.86,0.2-1.88,0.47-2.03,0.56c-0.09,0.05-0.2,0.07-0.25,0.04c-0.05-0.03-0.16-0.01-0.26,0.04c-0.1,0.05-0.58,0.18-1.07,0.28
		c-1.35,0.28-1.95,0.43-2.05,0.54c-0.06,0.06-0.18,0.1-0.29,0.1c-0.2,0-1.35,0.31-1.86,0.5c-0.17,0.06-0.63,0.17-1,0.23
		c-0.37,0.06-0.91,0.17-1.18,0.25c-0.27,0.07-0.61,0.15-0.74,0.17c-0.25,0.04-2.02,0.56-3.32,0.97c-1.89,0.6-2.27,0.71-2.51,0.75
		c-0.14,0.02-0.35,0.09-0.45,0.15c-0.11,0.06-0.48,0.19-0.84,0.3c-0.6,0.18-0.64,0.2-0.66,0.48c-0.02,0.25,0.01,0.31,0.3,0.45
		c0.18,0.08,0.35,0.21,0.38,0.28c0.02,0.07,0.12,0.12,0.21,0.12c0.09,0,0.67,0.27,1.28,0.6c0.94,0.51,2.59,1.32,3.22,1.58
		c0.82,0.34,2.5,1.24,2.6,1.38c0.09,0.14-0.01,1.79-0.16,2.66c-0.08,0.45-0.17,1.02-0.21,1.27c-0.04,0.25-0.18,0.94-0.32,1.54
		c-0.13,0.6-0.31,1.37-0.38,1.72c-0.07,0.35-0.19,0.8-0.25,1c-0.07,0.2-0.16,0.55-0.21,0.78c-0.29,1.25-0.42,1.65-0.57,1.78
		c-0.18,0.16-0.24,0.49-0.08,0.49c0.05,0,0.09,0.06,0.09,0.14c0,0.07,0.1,0.16,0.22,0.19c0.16,0.04,0.38-0.05,0.85-0.36
		c0.35-0.23,0.66-0.42,0.7-0.42c0.1,0,1.89-0.91,2.04-1.04c0.12-0.11,0.48-0.28,1.28-0.63c0.18-0.08,0.4-0.15,0.48-0.15
		c0.08,0,0.16-0.03,0.19-0.08c0.03-0.05,0.35-0.17,0.71-0.28c0.36-0.11,0.99-0.32,1.39-0.47c0.4-0.15,0.81-0.3,0.91-0.34
		c0.45-0.16,1.93-0.66,2.18-0.74c0.15-0.04,0.7-0.22,1.23-0.4c0.53-0.18,1.2-0.38,1.5-0.47c0.3-0.08,0.73-0.21,0.95-0.28
		c0.22-0.07,0.5-0.13,0.62-0.13c0.12,0,0.3-0.04,0.4-0.1c0.1-0.06,0.3-0.12,0.43-0.14c0.67-0.11,1.65-0.34,2.01-0.49
		c0.22-0.09,0.72-0.25,1.09-0.36c0.37-0.11,0.76-0.23,0.86-0.27c1.66-0.67,1.8-0.91,1.55-2.65c-0.34-2.37-0.49-3.84-0.4-4
		c0.1-0.18,0.26-0.23,0.26-0.07c0,0.05,0.03,0.08,0.06,0.06c0.07-0.05,1.37-0.17,2.16-0.2c0.79-0.03,2.54-0.19,2.54-0.23
		c0-0.01,0.26-0.03,0.59-0.04c0.77-0.04,1.26-0.08,2.09-0.21c0.37-0.06,0.99-0.12,1.36-0.14c0.37-0.02,0.7-0.04,0.73-0.05
		c0.02-0.01,0.29-0.01,0.59,0.01c0.71,0.03,0.64,0.03,2.04-0.08c0.67-0.05,1.62-0.1,2.09-0.11c0.47,0,1.52-0.05,2.32-0.1
		c3.54-0.22,13.5-0.23,15.67-0.02c0.28,0.03,0.96,0.05,1.52,0.06c0.56,0.01,1.02,0.04,1.02,0.06c0,0.03,0.27,0.05,0.61,0.05
		c1.26-0.01,3.8,0.15,3.91,0.24c0.09,0.07,0.1,0.32,0.05,1.06c-0.16,2.34,0.08,4.08,0.57,4.09c0.05,0,0.16,0.1,0.23,0.21
		c0.07,0.11,0.35,0.32,0.62,0.47c0.27,0.15,0.56,0.32,0.64,0.4c0.08,0.07,0.32,0.23,0.54,0.35c0.41,0.23,0.51,0.28,2.26,1.06
		c0.57,0.25,1.11,0.51,1.18,0.57c0.08,0.06,0.34,0.2,0.59,0.31c1.17,0.52,2.23,1.06,2.77,1.41c0.33,0.21,0.75,0.46,0.95,0.56
		c0.2,0.1,0.74,0.39,1.2,0.65c0.46,0.26,0.86,0.47,0.89,0.47c0.23,0,1.79,0.91,2.39,1.4c0.41,0.33,0.78,0.6,0.82,0.6
		c0.11,0,1.28,1.2,1.28,1.32c0,0.06,0.1,0.16,0.22,0.21c0.18,0.08,0.25,0.08,0.36-0.03c0.16-0.16,0.19-0.32,0.07-0.45
		c-0.05-0.05-0.11-0.62-0.14-1.27c-0.03-0.65-0.07-1.4-0.09-1.68c-0.08-0.9-0.15-2.55-0.2-4.4c-0.08-2.94-0.14-4.13-0.23-4.38
		c-0.19-0.5-0.12-0.67,0.6-1.36c0.38-0.37,0.78-0.69,0.89-0.72c0.11-0.04,0.32-0.15,0.47-0.27c0.31-0.23,1.04-0.62,1.04-0.55
		c0,0.02,0.15-0.06,0.33-0.18c0.18-0.12,0.38-0.22,0.45-0.22c0.07,0,0.26-0.08,0.45-0.18c0.18-0.1,0.38-0.18,0.44-0.18
		c0.06,0,0.44-0.16,0.85-0.35c0.41-0.2,0.94-0.38,1.19-0.41c1.24-0.16,1.72-0.39,1.59-0.76c-0.04-0.12-1.11-0.65-1.3-0.65
		c-0.05,0-0.3-0.09-0.56-0.21c-0.26-0.12-0.63-0.24-0.83-0.28c-0.2-0.04-0.46-0.14-0.58-0.24c-0.12-0.09-0.28-0.17-0.35-0.17
		c-0.11,0-0.9-0.3-1.43-0.54c-0.1-0.05-0.41-0.15-0.69-0.23c-0.28-0.08-0.85-0.29-1.27-0.47c-0.42-0.18-0.93-0.36-1.13-0.41
		c-0.2-0.05-0.45-0.13-0.54-0.17c-0.43-0.19-1.91-0.73-2.22-0.8c-0.18-0.04-0.67-0.2-1.08-0.35c-0.41-0.15-0.97-0.32-1.23-0.39
		c-0.26-0.06-0.52-0.15-0.58-0.19c-0.05-0.04-0.28-0.12-0.5-0.16c-0.22-0.05-0.83-0.21-1.35-0.36c-0.53-0.15-1.03-0.28-1.14-0.28
		c-0.25-0.01-1.24-0.32-1.6-0.5c-0.15-0.08-0.3-0.12-0.33-0.1c-0.03,0.03-0.17-0.02-0.31-0.09c-0.26-0.13-0.26-0.15-0.21-0.74
		c0.07-0.86,0.13-1.26,0.34-2.56c0.19-1.11,0.27-3.19,0.14-3.32c-0.03-0.04-0.4-0.14-0.82-0.23c-0.42-0.09-1-0.23-1.3-0.31
		c-0.99-0.27-2.17-0.51-3.04-0.64c-1.98-0.28-2.26-0.32-3.09-0.41c-1.08-0.12-2.79-0.28-3.09-0.3c-0.12-0.01-0.45-0.04-0.73-0.07
		c-1.17-0.13-2.87-0.25-4.29-0.29c-0.83-0.02-1.67-0.06-1.86-0.09C54.04,41.53,43.86,41.35,43.76,41.46L43.76,41.46z M54.07,42.88
		c0.15,0.07,0.13,0.08-0.12,0.08c-0.18,0-0.28-0.03-0.25-0.09C53.77,42.77,53.83,42.77,54.07,42.88L54.07,42.88z M50.9,42.99
		c0.05,0.03,0.42,0.05,0.81,0.05c1.05-0.01,3.09,0.17,3.3,0.28c0.14,0.07,0.19,0.07,0.23-0.02c0.03-0.08,0.07-0.09,0.12-0.01
		c0.04,0.05,0.47,0.13,0.94,0.16c0.47,0.03,0.98,0.07,1.12,0.09c0.16,0.02,0.28-0.02,0.31-0.1c0.03-0.07,0.08-0.09,0.11-0.04
		c0.09,0.15,0.64,0.24,0.64,0.11c0-0.08,0.04-0.08,0.14,0c0.07,0.06,0.16,0.09,0.2,0.05c0.03-0.03,0.12-0.01,0.2,0.05
		c0.11,0.09,0.14,0.09,0.18,0c0.03-0.09,0.08-0.07,0.17,0.05c0.12,0.15,0.13,0.15,0.23,0c0.09-0.15,0.11-0.16,0.27-0.01
		c0.14,0.12,0.37,0.16,1.08,0.18c0.5,0.02,1.3,0.09,1.79,0.17c0.49,0.08,1.03,0.17,1.19,0.19c0.2,0.03,0.28,0.01,0.24-0.05
		c-0.09-0.15,0.28-0.12,0.43,0.04c0.12,0.12,0.31,0.16,1.38,0.28c0.51,0.06,0.6,0.08,0.85,0.22c0.12,0.07,0.58,0.18,1,0.24
		c0.43,0.06,1.06,0.19,1.41,0.27c0.35,0.08,0.82,0.16,1.05,0.17c0.23,0.01,0.49,0.06,0.59,0.11c0.1,0.05,0.23,0.07,0.3,0.05
		c0.06-0.02,0.15,0,0.18,0.04c0.03,0.05,0.34,0.2,0.69,0.36c0.62,0.27,0.64,0.29,0.62,0.59c-0.03,0.82-0.26,2.52-0.7,5.17
		c-0.07,0.42-0.17,1.26-0.23,1.86c-0.06,0.6-0.18,1.58-0.27,2.18c-0.09,0.6-0.17,1.36-0.18,1.68c-0.02,0.89-0.09,1.2-0.27,1.15
		c-0.83-0.23-1.77-0.46-2.14-0.51c-0.25-0.03-0.76-0.11-1.14-0.16c-1.14-0.17-2.84-0.4-3.13-0.42c-1.45-0.11-2.79-0.15-7.17-0.21
		c-6.19-0.08-7.65-0.06-10.04,0.11c-0.54,0.04-3.49,0.16-4.59,0.19c-0.48,0.01-2.17,0.1-3.54,0.19c-0.45,0.03-0.84,0.07-0.88,0.09
		c-0.03,0.02-0.97,0.06-2.09,0.08c-1.12,0.03-2.27,0.06-2.57,0.09c-0.3,0.02-1.02,0.07-1.59,0.1c-0.57,0.03-1.33,0.1-1.68,0.15
		c-0.59,0.08-2,0.25-2.32,0.27c-0.07,0.01-0.19,0.05-0.25,0.1c-0.06,0.05-0.15,0.06-0.2,0.03c-0.09-0.06-1.8,0.13-2.82,0.31
		c-0.27,0.05-0.64,0.11-0.82,0.14c-0.17,0.03-0.52,0.14-0.75,0.25c-0.51,0.23-0.6,0.18-0.66-0.44c-0.09-0.88-0.32-2.08-0.44-2.26
		c-0.07-0.11-0.09-0.25-0.05-0.36c0.03-0.1,0.05-0.21,0.04-0.24c-0.01-0.03-0.09-0.61-0.18-1.29c-0.11-0.94-0.12-1.27-0.05-1.37
		c0.08-0.1,0.07-0.16-0.06-0.29c-0.13-0.13-0.17-0.33-0.17-0.97c-0.01-0.54-0.05-0.83-0.12-0.88c-0.06-0.04-0.12-0.19-0.14-0.33
		c-0.01-0.15-0.05-0.32-0.08-0.4c-0.03-0.07-0.18-0.69-0.34-1.36c-0.15-0.67-0.34-1.48-0.41-1.8c-0.09-0.41-0.11-0.62-0.04-0.74
		c0.13-0.25,0.72-0.64,0.96-0.64c0.11,0,0.48-0.09,0.82-0.2s0.67-0.2,0.73-0.2c0.06,0,0.14-0.03,0.17-0.07
		c0.03-0.04,0.19-0.07,0.35-0.07c0.16,0,0.62-0.06,1.04-0.14c0.42-0.08,0.79-0.12,0.84-0.09c0.04,0.03,0.1,0,0.14-0.05
		c0.03-0.05,0.11-0.08,0.18-0.05c0.06,0.02,0.28,0,0.47-0.05c0.19-0.05,0.61-0.11,0.94-0.13c0.33-0.03,0.61-0.08,0.64-0.12
		c0.03-0.04,0.23-0.1,0.45-0.13c0.64-0.08,1.44-0.22,1.53-0.28c0.1-0.06,1.44-0.25,2.2-0.3c0.32-0.02,0.63-0.08,0.69-0.13
		c0.06-0.05,0.44-0.11,0.86-0.14c0.95-0.06,1.59-0.12,1.59-0.14c0-0.01,0.69-0.05,1.59-0.09c0.17-0.01,0.39-0.05,0.48-0.1
		c0.11-0.06,0.16-0.05,0.16,0.02c0,0.12,0.84,0.06,1.82-0.13c0.62-0.12,3.37-0.25,6.45-0.29c2.03-0.03,3.53-0.1,3.6-0.16
		C49.32,42.89,50.82,42.94,50.9,42.99L50.9,42.99z M73.55,52.24c0.43,0.1,0.91,0.21,1.09,0.25c0.17,0.04,0.59,0.18,0.92,0.31
		c0.33,0.13,0.64,0.24,0.68,0.24c0.04,0,0.74,0.21,1.53,0.46c0.8,0.25,2.11,0.67,2.91,0.92c0.8,0.25,1.66,0.54,1.91,0.64
		c0.25,0.1,0.78,0.3,1.18,0.44c1.18,0.41,1.38,0.49,1.51,0.59c0.07,0.06,0.31,0.17,0.54,0.24c0.52,0.18,1.02,0.38,1.61,0.67
		c0.26,0.13,0.6,0.27,0.77,0.31c0.16,0.04,0.5,0.13,0.73,0.2c0.24,0.06,0.43,0.13,0.43,0.16c0,0.05-0.4,0.23-1.45,0.68
		c-1.48,0.63-3.43,1.72-3.98,2.23c-0.17,0.16-0.44,0.38-0.62,0.52c-0.31,0.24-0.32,0.26-0.27,0.75c0.03,0.28,0.09,0.81,0.15,1.19
		c0.09,0.68,0.17,2.68,0.19,4.95c0.01,1.19,0.14,3.2,0.23,3.75c0.06,0.34-0.12,0.41-0.3,0.12c-0.12-0.19-0.88-0.64-1.08-0.64
		c-0.07,0-0.13-0.03-0.13-0.07c0-0.08-1.58-1.2-1.7-1.2c-0.04,0-0.22-0.12-0.39-0.26c-0.36-0.29-3.83-2.02-4.06-2.02
		c-0.04,0-0.23-0.08-0.42-0.19c-0.19-0.1-0.52-0.25-0.73-0.34c-0.21-0.08-0.66-0.32-1.02-0.53c-0.68-0.41-0.78-0.46-2.82-1.48
		c-0.74-0.37-1.55-0.81-1.78-0.98c-0.24-0.16-0.46-0.3-0.49-0.3c-0.05,0-0.14-0.06-0.57-0.45l-0.31-0.27l0.22-0.18
		c0.12-0.1,0.4-0.25,0.63-0.33c0.53-0.19,0.84-0.33,1.54-0.73c0.77-0.44,0.98-0.64,1.1-1.06c0.05-0.2,0.15-0.35,0.23-0.35
		c0.14,0,0.18-0.59,0.06-0.79c-0.06-0.1-0.02-1,0.12-2.34c0.03-0.3,0.06-0.61,0.06-0.68c0-0.08,0.05-0.48,0.1-0.91
		c0.05-0.43,0.1-0.91,0.11-1.09c0.01-0.17,0.05-0.44,0.08-0.59c0.03-0.15,0.08-0.5,0.1-0.77c0.1-1.16,0.13-1.27,0.39-1.27
		C72.67,52.06,73.13,52.14,73.55,52.24L73.55,52.24z M21.55,54.34c0.07,0.81,0.11,1.07,0.29,2.12c0.08,0.45,0.2,1.18,0.27,1.63
		c0.07,0.45,0.17,0.94,0.22,1.09c0.1,0.31,0.24,1.54,0.21,1.79c-0.01,0.09,0.05,0.24,0.14,0.33c0.09,0.09,0.32,0.35,0.52,0.56
		c0.45,0.49,0.88,0.85,1.77,1.45c0.37,0.25,0.92,0.69,1.2,0.97l0.52,0.51l-0.47,0.28c-0.49,0.29-1.2,0.59-1.84,0.78
		c-0.2,0.06-0.56,0.18-0.82,0.27c-0.77,0.28-1.32,0.45-1.45,0.45c-0.08,0-0.2,0.04-0.3,0.08c-0.09,0.05-0.44,0.15-0.79,0.24
		c-0.35,0.09-0.68,0.19-0.73,0.22c-0.05,0.03-0.32,0.12-0.59,0.18c-0.27,0.06-0.66,0.17-0.86,0.23c-0.2,0.07-0.71,0.21-1.14,0.32
		c-1.94,0.5-2.46,0.67-4.32,1.41c-0.56,0.22-1.07,0.4-1.14,0.4c-0.07,0-0.24,0.06-0.4,0.15c-0.31,0.17-1.85,0.79-2.46,0.99
		c-0.21,0.07-0.83,0.38-1.37,0.68c-0.54,0.3-1.01,0.54-1.05,0.54c-0.04,0-0.06-0.07-0.03-0.16c0.02-0.09,0.07-0.32,0.11-0.52
		c0.03-0.2,0.12-0.47,0.18-0.59c0.06-0.13,0.19-0.6,0.27-1.04c0.08-0.45,0.24-1.21,0.36-1.69c0.11-0.48,0.24-1.16,0.27-1.5
		c0.04-0.35,0.1-0.66,0.14-0.71c0.11-0.14,0.26-1.24,0.33-2.39c0.07-1.17,0.04-1.23-0.69-1.61c-0.22-0.11-0.72-0.37-1.09-0.56
		c-0.37-0.19-1.01-0.49-1.41-0.66c-1.14-0.49-3.43-1.68-3.47-1.79C1.9,58.74,2,58.68,2.14,58.66c0.14-0.02,0.78-0.18,1.43-0.36
		c0.65-0.18,1.4-0.37,1.68-0.43C5.53,57.8,6,57.68,6.3,57.58c0.89-0.28,2.13-0.61,3.41-0.91c0.23-0.05,0.45-0.13,0.49-0.18
		c0.05-0.05,0.18-0.08,0.3-0.08c0.12,0,0.32-0.07,0.45-0.15c0.13-0.09,0.42-0.18,0.65-0.22c0.23-0.03,0.81-0.17,1.29-0.3
		c0.47-0.13,1.04-0.28,1.25-0.33c0.22-0.05,0.48-0.15,0.59-0.23c0.11-0.07,0.31-0.14,0.45-0.14s0.27-0.03,0.3-0.07
		c0.03-0.04,0.44-0.13,0.92-0.2c0.48-0.07,0.89-0.16,0.92-0.2c0.03-0.04,0.16-0.07,0.31-0.07c0.15,0,0.29-0.04,0.32-0.09
		c0.03-0.05,0.17-0.09,0.33-0.09c0.15,0,0.64-0.1,1.08-0.23c0.45-0.13,0.94-0.23,1.11-0.23c0.16,0,0.38-0.04,0.48-0.09
		c0.1-0.05,0.26-0.08,0.37-0.09C21.47,53.68,21.49,53.75,21.55,54.34L21.55,54.34z M63.65,57.68c0,0.05-0.1,0.09-0.23,0.09
		s-0.21-0.04-0.18-0.09c0.03-0.05,0.13-0.09,0.23-0.09C63.58,57.59,63.65,57.63,63.65,57.68L63.65,57.68z M55.12,57.96
		c0,0.05-0.04,0.09-0.09,0.09c-0.05,0-0.09-0.06-0.09-0.14c0-0.08,0.04-0.12,0.09-0.09C55.08,57.85,55.12,57.91,55.12,57.96
		L55.12,57.96z M65.93,57.9c0,0.02-0.04,0.06-0.09,0.1c-0.05,0.03-0.09,0.01-0.09-0.04c0-0.05,0.04-0.1,0.09-0.1
		C65.89,57.86,65.93,57.88,65.93,57.9L65.93,57.9z M67.9,58.1c-0.03,0.03-0.11,0.03-0.17,0.01c-0.07-0.03-0.05-0.05,0.05-0.05
		C67.87,58.05,67.92,58.07,67.9,58.1L67.9,58.1z M57.43,58.77c-0.03,0.05-0.08,0.07-0.14,0.04c-0.05-0.03-0.07-0.08-0.04-0.14
		c0.03-0.05,0.08-0.07,0.14-0.04C57.44,58.67,57.46,58.72,57.43,58.77L57.43,58.77z M65.65,59.04c0,0.05-0.12,0.08-0.27,0.06
		c-0.4-0.04-0.44-0.15-0.06-0.15C65.5,58.95,65.65,58.99,65.65,59.04L65.65,59.04z M68.56,59.64c0.17,0.13,0.83,0.28,1.31,0.3
		c0.49,0.02,0.66,0.14,0.78,0.52c0.1,0.3,0.08,0.35-0.14,0.58c-0.24,0.25-1.35,0.83-2.15,1.12c-0.24,0.09-0.58,0.28-0.76,0.42
		c-0.18,0.14-0.37,0.27-0.4,0.27c-0.14,0-0.16-0.7-0.06-2.03l0.1-1.34l0.59,0.02C68.15,59.52,68.48,59.58,68.56,59.64L68.56,59.64z
		 M26.77,62.11c0.12,0.99,0.23,1.86,0.26,1.95c0.07,0.27-0.11,0.18-0.55-0.27c-0.23-0.24-0.76-0.65-1.19-0.92
		c-0.85-0.55-1.53-1.09-1.8-1.43c-0.17-0.21-0.17-0.22,0.03-0.44c0.11-0.12,0.26-0.22,0.33-0.22c0.07,0,0.25-0.06,0.38-0.13
		c0.22-0.11,1.3-0.28,2.05-0.31l0.27-0.01L26.77,62.11L26.77,62.11z"/>
	<g>
		<path class="st0" d="M44.68,37.8c0.52-0.02,1.33-0.02,1.8-0.01c0.59,0.02,0.91-0.01,1.04-0.1c0.11-0.07,0.26-0.13,0.35-0.13
			c0.09,0,0.21-0.06,0.27-0.14c0.06-0.07,0.21-0.13,0.33-0.13c0.42,0.02,1.16-0.27,1.44-0.56c0.16-0.16,0.32-0.28,0.36-0.25
			c0.11,0.07,0.5-0.29,0.43-0.41c-0.03-0.05,0.04-0.14,0.14-0.19c0.11-0.05,0.2-0.16,0.2-0.23c0-0.07,0.09-0.27,0.2-0.44
			c0.11-0.17,0.25-0.51,0.32-0.77c0.07-0.26,0.16-0.55,0.22-0.65c0.28-0.53,0.41-0.9,0.37-1.03c-0.03-0.08,0.02-0.22,0.1-0.3
			c0.08-0.09,0.21-0.34,0.28-0.57c0.07-0.23,0.16-0.48,0.19-0.56c0.27-0.67,0.24-1.04-0.14-1.57c-0.18-0.25-0.35-0.57-0.37-0.69
			c-0.02-0.12-0.12-0.38-0.21-0.58c-0.19-0.42-0.21-1.07-0.02-0.9c0.06,0.06,0.19,0.34,0.28,0.61c0.1,0.33,0.17,0.45,0.2,0.33
			c0.02-0.1,0.01-0.29-0.04-0.43c-0.19-0.55-0.19-0.88-0.02-1.05c0.14-0.14,0.16-0.24,0.1-0.53c-0.06-0.29-0.02-0.53,0.22-1.28
			c0.16-0.5,0.29-1.06,0.28-1.24c-0.01-0.18,0.02-0.34,0.07-0.37c0.05-0.03,0.09-0.13,0.09-0.22c0-0.09,0.07-0.2,0.15-0.22
			c0.08-0.02,0.15-0.1,0.15-0.16c0-0.06,0.12-0.34,0.27-0.63c0.15-0.29,0.3-0.6,0.35-0.7c0.05-0.11,0.14-0.31,0.21-0.46
			c0.07-0.16,0.17-0.4,0.21-0.56c0.32-1.06,0.45-1.4,0.63-1.63c0.11-0.14,0.2-0.3,0.2-0.36c0-0.06,0.06-0.15,0.14-0.23
			c0.16-0.14,0.5-0.82,0.48-0.93c-0.01-0.04,0.03-0.13,0.09-0.19c0.06-0.06,0.15-0.3,0.21-0.53c0.06-0.22,0.16-0.59,0.22-0.81
			c0.06-0.22,0.1-0.5,0.07-0.64c-0.02-0.12,0-0.29,0.05-0.35c0.05-0.06,0.2-0.48,0.33-0.93c0.2-0.69,0.28-1.09,0.36-1.75
			c0.01-0.1,0.11-0.11,0.38-0.06c0.2,0.04,0.41,0.03,0.46-0.02c0.05-0.05,0.6-0.11,1.22-0.13c0.62-0.02,1.28-0.06,1.46-0.09
			c0.6-0.08,1.29-0.39,1.9-0.85c0.66-0.5,0.8-0.6,1.61-1.19c0.31-0.22,0.57-0.47,0.57-0.54c0-0.07,0.13-0.2,0.3-0.28
			c0.16-0.08,0.29-0.22,0.3-0.31c0-0.09,0.04-0.16,0.09-0.16c0.14,0.01,0.53-0.66,0.47-0.81c-0.03-0.08,0.03-0.19,0.14-0.26
			c0.26-0.17,0.72-0.94,0.74-1.25c0.01-0.14,0.08-0.28,0.16-0.3c0.08-0.03,0.12-0.12,0.1-0.23c-0.02-0.1,0.04-0.3,0.14-0.43
			s0.16-0.3,0.14-0.37c-0.02-0.07,0.03-0.16,0.11-0.23c0.09-0.06,0.15-0.15,0.16-0.21c0-0.05,0.1-0.16,0.21-0.25
			c0.18-0.13,0.22-0.27,0.26-0.88c0.03-0.4,0.1-0.77,0.15-0.83c0.12-0.15,0.15-1.17,0.03-1.29c-0.17-0.18-1.16,0.09-1.6,0.43
			c-0.3,0.24-0.47,0.31-0.61,0.26c-0.94-0.34-1.14-0.32-3.35,0.37c-0.59,0.18-1.15,0.33-1.24,0.33c-0.55-0.02-0.86,0.1-1.37,0.54
			c-0.19,0.16-0.56,0.4-0.82,0.51c-0.38,0.17-1.94,1.26-2.18,1.52c-0.03,0.03-0.2,0.15-0.37,0.26l-0.32,0.2l-0.29-0.28
			c-0.16-0.16-0.31-0.3-0.34-0.33C55.89,5.16,55.75,5.08,55.59,5c-0.51-0.26-1.23-0.69-1.4-0.85c-0.06-0.05-0.23-0.09-0.37-0.08
			c-0.14,0.01-0.35-0.03-0.45-0.09c-0.14-0.08-0.23-0.08-0.38,0c-0.31,0.18-1.27,0.2-1.74,0.04l-0.42-0.14l0.63-0.57
			C51.8,3,52.18,2.71,52.3,2.67c0.24-0.08,0.29-0.21,0.13-0.32c-0.13-0.09,0.92-0.6,1.79-0.88c0.37-0.12,0.74-0.27,0.84-0.35
			c0.09-0.07,0.2-0.11,0.24-0.08c0.04,0.03,0.55-0.05,1.13-0.17c0.58-0.12,1.47-0.26,1.99-0.3c0.58-0.05,0.85-0.11,0.71-0.15
			c-0.6-0.17-3.78-0.07-4.05,0.13c-0.06,0.05-0.17,0.07-0.24,0.06c-0.06-0.01-0.19,0-0.27,0.02c-0.08,0.02-0.37,0.08-0.66,0.14
			s-0.63,0.15-0.77,0.22c-0.14,0.07-0.32,0.12-0.41,0.12c-0.08,0-0.19,0.04-0.22,0.09c-0.03,0.05-0.14,0.09-0.22,0.09
			c-0.18-0.01-1.35,0.59-2.38,1.21c-1.04,0.63-2.19,1.74-2.65,2.54c-0.21,0.38-0.36,0.71-0.34,0.73c0.03,0.03,0.2,0.01,0.38-0.04
			c0.18-0.05,0.35-0.06,0.38-0.03c0.03,0.03,0.04,0.23,0.03,0.45c-0.01,0.21,0.05,1.01,0.12,1.76c0.07,0.75,0.15,1.54,0.16,1.75
			c0.01,0.21,0.05,0.59,0.09,0.85c0.15,1.03-0.22,1.81-1.41,2.9c-0.82,0.75-1.18,1.17-1.24,1.44c-0.02,0.1-0.09,0.26-0.14,0.36
			c-0.32,0.65,0.01,3.4,0.53,4.32c0.13,0.24,0.38,0.69,0.54,1c0.16,0.31,0.37,0.68,0.45,0.82c0.09,0.15,0.2,0.35,0.25,0.47
			c0.05,0.12,0.13,0.22,0.18,0.22c0.04,0,0.14,0.14,0.21,0.32c0.07,0.17,0.3,0.51,0.5,0.75c0.2,0.24,0.51,0.67,0.69,0.96
			c0.18,0.29,0.41,0.66,0.52,0.83c0.11,0.17,0.21,0.54,0.24,0.82c0.02,0.28,0.06,0.54,0.08,0.58c0.02,0.04-0.02,0.15-0.09,0.25
			c-0.07,0.1-0.11,0.2-0.08,0.22c0.02,0.02,0.18,0.16,0.35,0.3L50,27.35l-0.7-0.03c-0.47-0.02-0.76-0.08-0.9-0.18
			c-0.17-0.13-0.27-0.14-0.6-0.06c-0.22,0.05-0.91,0.09-1.53,0.08c-1.89-0.02-2.34,0.02-2.57,0.26c-0.14,0.14-0.39,0.23-0.81,0.29
			c-0.33,0.04-0.69,0.15-0.78,0.23c-0.14,0.12-0.29,0.13-0.77,0.06c-0.33-0.05-0.67-0.13-0.76-0.19c-0.12-0.07-0.28-0.05-0.57,0.07
			c-0.22,0.09-0.52,0.19-0.66,0.21c-0.14,0.03-0.32,0.07-0.42,0.1c-0.15,0.05-0.16-0.01-0.1-0.61c0.06-0.56,0.11-0.71,0.32-0.92
			c0.32-0.32,0.37-0.94,0.13-1.75c-0.17-0.57-0.14-0.69,0.26-1.14c0.13-0.14,0.17-0.39,0.19-1.14c0.02-0.53,0-0.99-0.04-1.04
			c-0.04-0.04,0.03-0.15,0.15-0.23c0.17-0.11,0.2-0.18,0.13-0.28c-0.05-0.07-0.09-0.2-0.09-0.27c0-0.08-0.02-0.26-0.05-0.4
			c-0.04-0.18-0.03-0.26,0.05-0.26c0.15,0.01,0.16-2.2,0.01-2.4c-0.05-0.07-0.07-0.15-0.05-0.17c0.03-0.03,0.08-0.27,0.11-0.55
			c0.09-0.73,0.19-1.12,0.34-1.44c0.08-0.16,0.17-0.39,0.21-0.53c0.04-0.14,0.14-0.3,0.21-0.35c0.07-0.06,0.14-0.18,0.14-0.28
			c0-0.09,0.05-0.2,0.09-0.22c0.15-0.08,0.62-0.95,0.62-1.16c0-0.1,0.05-0.19,0.1-0.18c0.05,0,0.1-0.08,0.1-0.18
			c0-0.1,0.05-0.21,0.09-0.23c0.05-0.03,0.12-0.2,0.17-0.4c0.05-0.2,0.12-0.4,0.18-0.46c0.06-0.06,0.08-0.15,0.05-0.21
			c-0.03-0.05,0-0.12,0.05-0.16c0.15-0.08,0.07-1.36-0.13-1.97c-0.09-0.27-0.15-0.58-0.15-0.69c0-0.11-0.05-0.26-0.13-0.32
			c-0.07-0.06-0.14-0.17-0.14-0.23c0-0.06-0.2-0.28-0.46-0.51c-0.26-0.22-0.58-0.52-0.75-0.67c-0.16-0.15-0.32-0.27-0.35-0.27
			c-0.03,0-0.19-0.18-0.35-0.4l-0.29-0.39l0.4-0.47c1.8-2.15,2.11-2.54,2.11-2.67c0.01-0.12-0.03-0.12-0.27,0.02
			c-0.6,0.35-1.35,0.91-1.59,1.19c-0.15,0.17-0.39,0.44-0.56,0.61l-0.29,0.3l-0.9-0.08c-0.52-0.05-0.93-0.05-0.96,0
			c-0.03,0.05-0.25,0.11-0.48,0.13c-0.42,0.04-0.67,0.2-0.46,0.29c0.06,0.02,0.11,0.13,0.1,0.22c-0.01,0.24-0.27,0.22-0.54-0.05
			L35.98,5l-0.21,0.25c-0.11,0.13-0.38,0.32-0.58,0.42c-0.2,0.09-0.4,0.25-0.44,0.36c-0.09,0.26-0.18,0.23-0.32-0.13
			c-0.15-0.37-0.24-0.48-0.53-0.65c-0.11-0.07-0.2-0.2-0.2-0.3c0-0.11-0.08-0.21-0.2-0.25c-0.41-0.15-0.63-0.36-0.52-0.5
			c0.13-0.14,0.05-0.32-0.14-0.33c-0.07,0-0.21-0.09-0.29-0.19c-0.09-0.1-0.6-0.34-1.14-0.52c-0.54-0.19-1.12-0.41-1.3-0.49
			c-0.58-0.25-1.32-0.41-1.74-0.37c-0.24,0.02-0.42,0-0.43-0.05c-0.01-0.05-0.57-0.16-1.25-0.25c-0.68-0.09-1.37-0.18-1.55-0.21
			c-0.18-0.03-0.84-0.1-1.47-0.16c-1.04-0.09-1.18-0.08-1.55,0.09c-0.55,0.25-0.51,0.5,0.07,0.53c0.45,0.02,0.93,0.28,0.92,0.51
			c0,0.07,0.08,0.18,0.18,0.24c0.1,0.06,0.28,0.21,0.4,0.33c0.12,0.12,0.32,0.3,0.45,0.4c0.16,0.12,0.29,0.4,0.45,0.97
			c0.26,0.9,1.27,3.29,1.67,3.94c0.59,0.95,2.07,2.23,2.61,2.25c0.1,0,0.23,0.06,0.29,0.12c0.1,0.1,0.52,0.2,1.14,0.26
			c0.3,0.03,0.33,0.06,0.33,0.33c0.01,0.58,0.1,1.22,0.21,1.35c0.06,0.08,0.11,0.27,0.11,0.44c0.01,0.39,0.6,1.81,1.12,2.68
			c0.23,0.38,0.48,0.82,0.56,0.98c0.08,0.16,0.4,0.81,0.71,1.45c0.31,0.64,0.7,1.4,0.86,1.69c0.16,0.29,0.41,0.77,0.55,1.06
			c0.36,0.73,0.76,1.35,0.87,1.36c0.05,0,0.08,0.07,0.08,0.15c-0.01,0.15,0.5,1.35,0.87,2.07c0.04,0.08,0.14,0.3,0.21,0.48
			c0.31,0.78,0.37,0.89,0.58,1c0.2,0.12,0.22,0.2,0.23,1.02l0.01,0.89l0.18-0.34c0.1-0.18,0.18-0.38,0.18-0.44
			c0-0.06,0.04-0.1,0.08-0.1c0.12,0.01,0,1.62-0.15,1.93c-0.25,0.54-0.2,1.74,0.12,2.86c0.2,0.69,1.03,2.75,1.38,3.43
			c0.56,1.06,1.36,1.82,2.11,1.98C42.43,37.73,43.68,37.84,44.68,37.8L44.68,37.8z M39.14,6.98c0.04-0.03,0.11,0,0.16,0.08
			c0.13,0.23,0.08,0.33-0.08,0.15C39.14,7.12,39.1,7.02,39.14,6.98L39.14,6.98z"/>
		<path class="st0" d="M44.07,5.86c0.71-0.18,1.22-0.51,2.17-1.42c0.55-0.53,1.16-1.05,1.34-1.16c0.19-0.11,0.6-0.37,0.92-0.58
			c0.62-0.4,3.09-1.56,3.3-1.56c0.07,0,0.12-0.04,0.13-0.09c0.01-0.29-2.45-0.02-2.86,0.31c-0.09,0.07-0.18,0.1-0.21,0.07
			c-0.16-0.18-2.18,1.03-3.07,1.84c-0.6,0.54-1.38,1.47-1.39,1.64c0,0.04-0.12,0.24-0.27,0.44C43.86,5.74,43.84,5.92,44.07,5.86
			L44.07,5.86z"/>
		<path class="st0" d="M42.24,5.09c0.14-0.1,0.28-0.17,0.32-0.17c0.08,0,1.48-1.23,1.84-1.62c0.48-0.52,1.73-1.57,2.43-2.05
			c0.41-0.28,0.75-0.56,0.76-0.63c0.01-0.16,0.01-0.16-0.6,0.13c-1.45,0.69-2.65,1.62-4.31,3.37c-0.38,0.4-0.77,0.78-0.86,0.84
			c-0.1,0.07-0.17,0.15-0.17,0.2C41.64,5.33,41.98,5.28,42.24,5.09L42.24,5.09z"/>
	</g>
	<g>
		<path class="st2" d="M41.02,45.35c-0.14,0.02-0.51,0.06-0.81,0.09l-0.55,0.04l0.24,0.21c0.26,0.23,0.44,0.26,1.39,0.26l0.47,0
			l0.03,0.4c0.02,0.22,0.03,0.93,0.01,1.57c-0.01,0.64-0.01,1.18,0,1.19c0.01,0.01,0.03,0.52,0.05,1.14
			c0.02,0.62,0.03,1.13,0.03,1.15c0,0.02,0,0.04-0.01,0.06c0,0.02-0.02,0.65-0.03,1.41l-0.03,1.38l0.14,0.22
			c0.08,0.12,0.25,0.27,0.38,0.34c0.22,0.11,0.24,0.11,0.32,0.01c0.07-0.09,0.11-0.37,0.09-0.59c-0.04-0.36-0.08-1.68-0.1-3.08
			c-0.04-2.38-0.04-2.89,0-3.86c0.02-0.48,0.03-0.95,0.03-1.06c0-0.18,0.01-0.19,0.13-0.16c0.07,0.02,0.36,0.06,0.63,0.07
			c0.83,0.06,0.99-0.05,0.56-0.39c-0.24-0.19-0.39-0.23-1.35-0.4C42.31,45.29,41.38,45.29,41.02,45.35L41.02,45.35z"/>
		<path class="st2" d="M60.46,45.46c-0.02,0.03,0,0.06,0.05,0.06c0.09,0,0.19,0.21,0.13,0.27c-0.02,0.02,0,0.07,0.04,0.12
			c0.06,0.07,0.07,0.98,0.07,4.03v3.94l0.18,0.15c0.45,0.38,0.62,0.47,0.77,0.44c0.08-0.02,0.41-0.05,0.73-0.06
			c0.32-0.01,0.66-0.05,0.74-0.08c0.08-0.03,0.23-0.06,0.34-0.06c0.25,0,0.61-0.15,0.61-0.26c0-0.12-0.5-0.2-1.43-0.21
			c-0.45-0.01-0.84-0.03-0.85-0.06c-0.03-0.05-0.09-1.91-0.08-2.21c0.02-0.27,0.01-2.94,0-4.18c-0.01-0.73,0.01-1.18,0.05-1.29
			c0.09-0.22,0.04-0.26-0.45-0.46C60.92,45.44,60.51,45.37,60.46,45.46L60.46,45.46z"/>
		<path class="st2" d="M48.6,45.51c-0.18,0.01-0.24,0.06-0.36,0.23c-0.22,0.33-0.27,0.78-0.23,1.8c0.02,0.5,0.05,0.94,0.07,0.99
			c0.02,0.05,0,0.11-0.03,0.13c-0.04,0.02-0.06,0.21-0.06,0.48c0.01,0.56-0.06,1.91-0.1,2.02c-0.04,0.1-0.05,0.16-0.13,0.75
			c-0.09,0.67-0.22,1.38-0.32,1.69c-0.1,0.31-0.35,0.67-0.47,0.67c-0.07,0-0.26-0.28-0.49-0.73c-0.12-0.24-0.2-0.79-0.26-1.75
			c-0.05-0.83-0.05-1.11-0.01-1.67c0.03-0.34,0.02-0.55-0.02-0.63c-0.05-0.08-0.04-0.15,0-0.24c0.1-0.18,0.22-1.54,0.24-2.79
			l0.01-0.58l-0.21-0.1c-0.2-0.1-1.14-0.28-1.14-0.22c0,0.02,0.04,0.07,0.09,0.13c0.08,0.09,0.08,0.2,0.03,0.9
			c-0.07,0.97-0.03,5.57,0.06,6.21c0.13,1.01,0.77,1.85,1.59,2.07c0.27,0.08,0.37,0.04,0.87-0.28c0.13-0.09,0.24-0.2,0.24-0.24
			c0-0.05,0.04-0.1,0.09-0.12c0.05-0.02,0.09-0.06,0.09-0.09c0-0.03,0.06-0.18,0.12-0.33c0.14-0.3,0.22-0.58,0.25-0.86
			c0.01-0.1,0.03-0.25,0.05-0.35c0.02-0.09,0.05-0.28,0.06-0.42c0.03-0.28,0.09-0.65,0.12-0.83c0.05-0.24,0.15-1.22,0.16-1.58
			c0.05-1.09,0.08-1.77,0.14-2.42c0.03-0.4,0.07-0.98,0.08-1.3l0.02-0.58L49,45.49C48.9,45.49,48.73,45.5,48.6,45.51L48.6,45.51z"/>
		<path class="st2" d="M50.78,45.51c-0.06,0.02-0.14,0.05-0.16,0.07c-0.06,0.05-0.1,0.8-0.05,0.83c0.05,0.03,0.03,4.8-0.02,6.42
			l-0.04,1.22l0.2,0.19c0.53,0.49,0.75,0.57,0.91,0.34c0.07-0.1,0.08-0.26,0.07-0.89c-0.02-0.74-0.02-1.42,0-1.83
			c0.01-0.11-0.01-0.24-0.04-0.28c-0.03-0.05-0.02-0.09,0.03-0.12c0.05-0.03,0.06-0.15,0.04-0.42c-0.02-0.22-0.02-0.39,0.01-0.41
			c0.03-0.02,0.14,0.08,0.24,0.21c0.1,0.13,0.2,0.26,0.22,0.27c0.05,0.04,0.6,0.87,0.67,1.01c0.21,0.4,0.42,0.73,0.66,1.07
			c0.15,0.21,0.37,0.53,0.51,0.72c0.13,0.19,0.46,0.67,0.74,1.07c0.87,1.26,0.99,1.41,1.32,1.58c0.17,0.09,0.21,0.09,0.36,0.02
			c0.24-0.12,0.21-0.34-0.08-0.65c-0.21-0.23-0.64-0.78-0.82-1.05c-0.09-0.14-0.41-0.59-0.76-1.08c-0.12-0.17-0.28-0.4-0.37-0.53
			c-0.09-0.13-0.19-0.25-0.23-0.28c-0.04-0.03-0.1-0.14-0.13-0.26c-0.03-0.12-0.13-0.32-0.21-0.44c-0.08-0.12-0.24-0.39-0.35-0.6
			c-0.11-0.21-0.26-0.45-0.34-0.54C53.06,51.05,53,50.95,53,50.9c0-0.05-0.02-0.08-0.05-0.08c-0.03,0-0.12-0.09-0.2-0.2l-0.15-0.2
			l0.19-0.22c0.26-0.3,0.45-0.58,0.45-0.66c0-0.04,0.06-0.11,0.14-0.18c0.09-0.07,0.14-0.17,0.14-0.28c0-0.09,0.04-0.35,0.09-0.58
			c0.06-0.28,0.08-0.6,0.06-1.03c-0.04-0.9-0.05-0.91-0.18-1.06c-0.06-0.07-0.15-0.21-0.2-0.3c-0.05-0.09-0.18-0.21-0.29-0.25
			s-0.28-0.12-0.37-0.16c-0.25-0.11-0.46-0.15-0.86-0.17c-0.2-0.01-0.47-0.03-0.61-0.04C51.01,45.49,50.85,45.49,50.78,45.51
			L50.78,45.51z M52.29,46.09c0.29,0.17,0.36,0.33,0.4,0.96c0.07,1.02-0.48,2.45-0.94,2.45c-0.08,0-0.08-0.31,0.01-1.35
			c0.01-0.16,0.02-0.55,0.02-1.21c0-0.19,0.01-0.46,0.05-0.99C51.85,45.86,51.94,45.89,52.29,46.09L52.29,46.09z"/>
		<path class="st2" d="M56.84,45.69c-0.07,0.13-0.17,0.52-0.16,0.68c0,0.1-0.02,0.2-0.05,0.22c-0.03,0.02-0.05,0.1-0.05,0.17
			c0,0.08-0.04,0.22-0.08,0.33c-0.11,0.26-0.16,0.4-0.18,0.51c-0.02,0.15-0.26,1.22-0.37,1.64c-0.12,0.45-0.24,1.05-0.35,1.67
			c-0.04,0.22-0.09,0.46-0.12,0.54c-0.03,0.07-0.04,0.16-0.01,0.2c0.02,0.03-0.01,0.09-0.06,0.13c-0.07,0.05-0.08,0.11-0.04,0.26
			c0.03,0.12,0.03,0.23,0,0.29c-0.07,0.13-0.06,0.91,0.01,0.95c0.03,0.02,0.03,0.05,0.01,0.08c-0.05,0.09,0.15,0.41,0.44,0.71
			c0.24,0.24,0.29,0.27,0.39,0.22c0.15-0.08,0.2-0.22,0.22-0.75c0.02-0.59,0.06-0.88,0.17-1.48c0.05-0.28,0.12-0.68,0.14-0.89
			c0.03-0.21,0.1-0.63,0.15-0.95l0.1-0.58l0.58,0.02c0.32,0.01,0.59,0.04,0.61,0.05c0.05,0.06,0.5,2.29,0.57,2.83
			c0.05,0.44,0.15,1.09,0.21,1.42c0.02,0.12,0.15,0.29,0.46,0.6c0.13,0.13,0.2,0.15,0.33,0.13c0.1-0.02,0.19-0.04,0.21-0.06
			c0.05-0.03,0-0.65-0.07-0.92c-0.03-0.13-0.11-0.58-0.17-1.01c-0.06-0.43-0.19-1.09-0.29-1.47c-0.1-0.38-0.22-0.91-0.27-1.18
			c-0.05-0.27-0.1-0.55-0.11-0.63c-0.01-0.08-0.05-0.33-0.07-0.55c-0.03-0.22-0.07-0.44-0.09-0.47c-0.04-0.06-0.1-0.38-0.18-0.86
			c-0.02-0.11-0.06-0.24-0.09-0.31c-0.03-0.06-0.05-0.11-0.03-0.11c0.03,0-0.11-0.54-0.21-0.75c-0.12-0.29-0.15-0.31-0.33-0.36
			c-0.1-0.03-0.18-0.07-0.18-0.09C57.89,45.79,56.91,45.56,56.84,45.69L56.84,45.69z M57.76,47.12c0.02,0.12,0.08,0.28,0.12,0.37
			c0.04,0.09,0.08,0.29,0.08,0.46c0,0.17,0.03,0.45,0.05,0.62c0.03,0.2,0.03,0.34-0.01,0.39c-0.04,0.05-0.21,0.07-0.49,0.07
			c-0.38,0-0.43-0.01-0.4-0.1c0.02-0.06,0.04-0.2,0.06-0.33c0.04-0.26,0.19-0.86,0.26-1.04c0.03-0.06,0.06-0.22,0.09-0.35
			C57.59,46.83,57.69,46.79,57.76,47.12L57.76,47.12z"/>
		<path class="st2" d="M37.94,45.74c-0.02,0.02-0.03,0.12-0.03,0.23c0,0.11-0.04,0.32-0.08,0.47c-0.05,0.15-0.12,0.42-0.18,0.61
			c-0.05,0.19-0.13,0.46-0.18,0.6c-0.05,0.14-0.15,0.65-0.23,1.12c-0.08,0.48-0.16,0.92-0.18,0.98c-0.02,0.06-0.04,0.17-0.05,0.23
			c-0.03,0.19-0.26,1.2-0.3,1.3c-0.02,0.05-0.04,0.22-0.05,0.37c-0.01,0.16-0.06,0.51-0.11,0.78c-0.05,0.27-0.14,0.8-0.2,1.18
			c-0.06,0.38-0.13,0.76-0.14,0.85c-0.02,0.13,0.02,0.21,0.21,0.42c0.13,0.14,0.27,0.26,0.32,0.26c0.04,0,0.13,0.03,0.19,0.07
			c0.2,0.13,0.25-0.01,0.32-1c0.04-0.52,0.09-1.02,0.1-1.11c0.02-0.09,0.04-0.33,0.06-0.53c0.04-0.52,0.1-0.64,0.35-0.68
			c0.24-0.05,1.25,0.01,1.3,0.08c0.04,0.04,0.25,1.34,0.32,1.94c0.05,0.43,0.12,0.58,0.42,0.82c0.24,0.2,0.7,0.39,0.77,0.32
			c0.05-0.05-0.16-1.43-0.26-1.68c-0.04-0.11-0.11-0.41-0.15-0.66c-0.04-0.25-0.09-0.59-0.12-0.75c-0.03-0.16-0.12-0.66-0.2-1.12
			c-0.08-0.46-0.21-1.09-0.29-1.41c-0.08-0.32-0.14-0.63-0.14-0.7c0-0.06-0.02-0.14-0.04-0.16c-0.02-0.02-0.05-0.1-0.05-0.16
			c0-0.13-0.12-0.81-0.32-1.83c-0.06-0.33-0.15-0.64-0.19-0.69C38.73,45.8,38,45.69,37.94,45.74L37.94,45.74z M38.63,48.81
			c0.26,1.25,0.32,1.61,0.36,2.12l0.04,0.49l-0.19-0.04c-0.1-0.02-0.41-0.04-0.67-0.04h-0.49l0.03-0.3
			c0.02-0.17,0.06-0.42,0.09-0.56c0.1-0.41,0.28-1.31,0.36-1.82c0.01-0.07,0.04-0.15,0.06-0.18c0.02-0.04,0.04-0.16,0.05-0.28
			c0-0.12,0.03-0.25,0.07-0.3C38.41,47.8,38.42,47.83,38.63,48.81L38.63,48.81z"/>
		<path class="st2" d="M34.93,46c-0.1,0.07-0.2,0.17-0.22,0.22c-0.02,0.05-0.05,0.44-0.06,0.86c-0.01,0.43-0.03,0.97-0.05,1.21
			c-0.02,0.24-0.05,0.67-0.07,0.96c-0.03,0.41-0.02,0.55,0.04,0.63c0.06,0.07,0.06,0.1,0.01,0.12c-0.06,0.02-0.06,0.3-0.04,1.3
			c0.02,0.7,0.04,1.29,0.04,1.3c0.01,0.02-0.01,0.04-0.05,0.05c-0.07,0.02-0.49-0.93-0.49-1.11c0-0.06-0.05-0.21-0.12-0.31
			c-0.06-0.1-0.11-0.22-0.1-0.26c0.01-0.04-0.03-0.19-0.09-0.35c-0.12-0.3-0.2-0.6-0.36-1.24c-0.05-0.21-0.11-0.43-0.14-0.49
			c-0.03-0.06-0.11-0.31-0.18-0.55c-0.07-0.24-0.19-0.57-0.27-0.73c-0.08-0.17-0.16-0.41-0.18-0.55c-0.02-0.19-0.08-0.3-0.26-0.49
			c-0.13-0.13-0.27-0.24-0.3-0.24c-0.04,0-0.13-0.07-0.22-0.17c-0.19-0.22-0.41-0.24-0.33-0.03c0.03,0.07,0.05,1.04,0.06,2.14
			c0,1.11,0.02,2.09,0.03,2.18c0.01,0.1,0.04,0.77,0.06,1.5c0.08,2.77,0.09,2.79,0.58,3.11c0.09,0.06,0.25,0.14,0.36,0.18
			c0.25,0.09,0.29,0.01,0.26-0.58c-0.01-0.25-0.02-0.51-0.02-0.56c0-0.06-0.02-0.12-0.06-0.14c-0.04-0.02-0.03-0.06,0.01-0.12
			c0.04-0.05,0.05-0.14,0.04-0.22c-0.01-0.08,0-0.16,0.02-0.18c0.03-0.02,0.03-0.06,0.01-0.1c-0.02-0.04-0.04-0.36-0.03-0.72
			c0-0.36-0.02-0.77-0.05-0.92c-0.03-0.15-0.06-0.32-0.06-0.39c0-0.06,0-0.26,0.01-0.45c0-0.18,0.03-0.33,0.05-0.33
			c0.03,0,0.23,0.57,0.46,1.27c0.23,0.7,0.45,1.29,0.5,1.33c0.04,0.03,0.07,0.09,0.05,0.13c-0.02,0.06,0.31,0.8,0.49,1.08
			c0.03,0.05,0.07,0.13,0.08,0.17c0.03,0.09,0.5,0.34,0.83,0.45c0.19,0.06,0.19,0.06,0.19-0.12c0-0.1,0.03-0.21,0.06-0.24
			c0.03-0.03,0.06-0.31,0.05-0.63c0-0.32-0.01-1.61-0.01-2.88c0-1.27,0.01-2.93,0.03-3.69c0.02-0.76,0.02-1.42,0-1.46
			C35.46,45.82,35.14,45.85,34.93,46L34.93,46z"/>
	</g>
	<path class="st1" d="M22.35,39.14c0.18-0.04,0.49-0.09,0.69-0.11c0.2-0.02,0.4-0.09,0.45-0.16c0.06-0.08,0.12-0.1,0.2-0.05
		c0.15,0.09,0.76,0.08,0.82-0.01c0.02-0.04,0.24-0.07,0.47-0.08c0.24-0.01,0.45-0.05,0.47-0.08c0.02-0.04,0.14-0.07,0.27-0.07
		c0.13,0,0.28-0.05,0.34-0.11c0.06-0.06,0.16-0.13,0.23-0.15c0.06-0.02,0.12-0.11,0.12-0.2c0-0.11,0.07-0.16,0.22-0.18
		c0.12-0.01,0.22,0.01,0.22,0.06s0.04,0.09,0.09,0.09c0.05,0,0.07-0.05,0.05-0.11c-0.03-0.07,0.02-0.11,0.15-0.11
		c0.26,0,0.58-0.22,0.76-0.52c0.22-0.37,0.36-0.44,1.35-0.71c1.33-0.36,3.09-0.67,4.21-0.75c1.24-0.08,1.67-0.19,2.03-0.5
		c0.25-0.22,0.26-0.25,0.13-0.32c-0.08-0.05-0.14-0.13-0.14-0.18c0-0.06-0.16-0.22-0.37-0.36c-0.2-0.14-0.37-0.29-0.37-0.34
		c0-0.04-0.16-0.19-0.35-0.32c-0.19-0.13-0.55-0.45-0.79-0.71c-0.25-0.26-0.6-0.63-0.79-0.83c-0.19-0.2-0.35-0.39-0.35-0.43
		c0-0.04-0.05-0.12-0.11-0.18c-0.37-0.34-1.1-1.01-1.2-1.08c-0.06-0.05-0.3-0.22-0.53-0.39c-0.44-0.32-0.55-0.53-0.48-0.93
		c0.1-0.55-0.43-3.78-0.73-4.47c-0.06-0.13-0.15-0.45-0.21-0.69c-0.06-0.24-0.17-0.58-0.25-0.74c-0.08-0.16-0.13-0.32-0.11-0.34
		c0.02-0.02-0.03-0.2-0.12-0.4c-0.24-0.55-0.36-0.9-0.4-1.16c-0.02-0.13-0.13-0.44-0.23-0.68c-0.11-0.24-0.2-0.47-0.2-0.51
		c0-0.05-0.03-0.08-0.07-0.08c-0.04,0-0.1-0.12-0.13-0.28c-0.03-0.15-0.1-0.32-0.17-0.37c-0.07-0.05-0.12-0.15-0.12-0.21
		c0-0.07-0.03-0.11-0.08-0.11c-0.05,0-0.08-0.07-0.08-0.16c0-0.09-0.11-0.28-0.24-0.44c-0.13-0.15-0.24-0.31-0.24-0.35
		c0-0.11-0.9-1.43-1.22-1.79c-0.15-0.17-0.38-0.44-0.49-0.59c-0.11-0.15-0.29-0.37-0.39-0.48c-0.1-0.12-0.29-0.35-0.4-0.5
		c-0.12-0.16-0.38-0.46-0.58-0.67c-0.2-0.21-0.57-0.63-0.82-0.93c-0.25-0.3-0.54-0.65-0.65-0.76c-1.63-1.73-2.32-2.57-2.72-3.34
		c-0.33-0.63-1.11-1.82-1.17-1.76c-0.02,0.02,0,0.11,0.05,0.2c0.11,0.2,0.11,0.26,0.01,0.26c-0.04,0-0.08-0.06-0.1-0.14
		c-0.01-0.08-0.05-0.11-0.08-0.06c-0.03,0.05,0,0.26,0.07,0.48c0.11,0.33,0.11,0.41,0.02,0.46c-0.09,0.06-0.09,0.11-0.01,0.28
		c0.06,0.14,0.07,0.26,0.02,0.36c-0.06,0.11-0.03,0.24,0.13,0.53c0.27,0.5,0.42,1.01,0.52,1.68c0.1,0.69,0.24,1.33,0.62,2.73
		c0.17,0.63,0.36,1.37,0.42,1.65c0.06,0.28,0.17,0.7,0.24,0.94c0.62,2.04,0.79,2.52,0.97,2.82c0.25,0.41,0.62,1.14,0.57,1.14
		c-0.02,0-0.13-0.09-0.25-0.19c-0.12-0.11-0.45-0.33-0.75-0.51c-0.3-0.18-0.69-0.45-0.88-0.61c-0.49-0.43-3.47-2.4-4.2-2.78
		c-1.11-0.57-1.34-0.71-1.42-0.81c-0.1-0.13-1.15-0.76-1.4-0.83c-0.1-0.03-0.23-0.12-0.32-0.21c-0.08-0.09-0.19-0.16-0.24-0.16
		c-0.05,0-0.2-0.11-0.33-0.24c-0.13-0.13-0.28-0.24-0.33-0.24c-0.14,0-0.43-0.23-1.08-0.87c-0.59-0.58-0.61-0.59-0.8-0.46
		c-0.11,0.07-0.2,0.18-0.2,0.24c0,0.06-0.15,0.26-0.33,0.44c-0.18,0.18-0.35,0.44-0.37,0.57c-0.04,0.24-0.04,0.24,1.04,2.25
		c0.13,0.24,0.31,0.52,0.41,0.63c0.1,0.11,0.19,0.26,0.2,0.33c0.03,0.23,0.45,0.86,0.69,1.04c0.15,0.11,0.24,0.25,0.24,0.36
		c0,0.11,0.03,0.19,0.07,0.19c0.04,0,0.15,0.13,0.25,0.29c0.1,0.16,0.25,0.31,0.33,0.33c0.09,0.02,0.16,0.1,0.16,0.18
		c0,0.08,0.1,0.26,0.22,0.42c0.32,0.4,1,1.15,1.22,1.36c0.11,0.1,0.19,0.21,0.19,0.25c0,0.04,0.09,0.15,0.18,0.24
		c0.1,0.09,0.36,0.36,0.58,0.59c0.21,0.23,0.45,0.42,0.51,0.42c0.06,0,0.11,0.07,0.11,0.16c0,0.09,0.03,0.16,0.07,0.16
		c0.09,0,0.66,0.54,0.66,0.63c0,0.04,0.28,0.34,0.61,0.66c0.33,0.32,0.61,0.61,0.61,0.65c0,0.03,0.24,0.25,0.53,0.47
		c0.28,0.22,0.53,0.43,0.53,0.46c0,0.07,1.03,0.81,1.13,0.81c0.05,0,0.09,0.04,0.09,0.08c0,0.05,0.09,0.1,0.2,0.13
		c0.11,0.03,0.2,0.09,0.2,0.15c0,0.1,0.39,0.33,0.51,0.31c0.03-0.01,0.06,0.02,0.06,0.07c0,0.04,0.15,0.18,0.33,0.3
		c0.37,0.24,0.4,0.31,0.14,0.32c-0.51,0.02-1.87,0.31-2.34,0.49c-0.66,0.26-1.42,0.68-2.11,1.15c-0.28,0.2-0.72,0.46-0.98,0.59
		c-0.43,0.21-0.53,0.23-1.15,0.21c-0.43-0.02-0.89-0.09-1.25-0.21c-0.51-0.17-0.76-0.26-1.55-0.61c-0.98-0.43-1.03-0.43-1.27,0.06
		c-0.21,0.42-0.2,0.67,0,0.85c0.59,0.51,0.73,0.68,0.73,0.88c0,0.13,0.09,0.29,0.24,0.43c0.55,0.48,1.14,1.1,1.14,1.18
		c0,0.04,0.14,0.24,0.31,0.42c0.17,0.19,0.41,0.48,0.55,0.65c0.32,0.42,0.67,0.77,0.75,0.77c0.04,0,0.28,0.22,0.54,0.48
		c0.26,0.26,0.57,0.53,0.69,0.59c0.12,0.06,0.29,0.18,0.39,0.27c0.18,0.17,0.42,0.37,1.16,0.96c0.24,0.2,0.55,0.39,0.67,0.42
		c0.12,0.03,0.22,0.08,0.22,0.12c0,0.03,0.21,0.16,0.47,0.28c0.26,0.12,0.64,0.31,0.87,0.43c0.4,0.21,1.05,0.29,2.39,0.31
		c0.24,0,0.42,0.03,0.42,0.07C21.9,39.24,21.9,39.24,22.35,39.14L22.35,39.14z M20.98,36.99c-0.43-0.06-1.69-0.45-1.86-0.58
		c-0.06-0.04-0.25-0.15-0.43-0.23c-0.9-0.4-0.94-0.43-2.97-1.97c-0.16-0.12-0.52-0.49-0.81-0.82c-0.29-0.33-0.57-0.65-0.63-0.71
		c-0.05-0.06-0.1-0.15-0.1-0.18c0-0.1,0.37-0.26,0.59-0.26c0.64,0,1.92-0.52,2.97-1.2c1.09-0.71,2.18-1.01,3.62-1.01
		c0.37,0,0.94-0.03,1.28-0.07c0.71-0.09,1.84,0.04,2.69,0.33c0.29,0.1,0.77,0.25,1.06,0.35c1.49,0.48,2.24,0.83,3.13,1.46
		c0.5,0.35,1.11,0.85,1.38,1.13l0.49,0.49l-0.85-0.04c-1.16-0.06-1.78-0.13-2.56-0.28c-0.23-0.04-0.53-0.1-0.69-0.12
		c-0.16-0.02-0.47-0.08-0.7-0.12c-0.52-0.1-2.61-0.25-3.53-0.26c-0.38,0-0.93-0.06-1.22-0.13c-0.36-0.08-0.9-0.12-1.67-0.1
		c-1.04,0.02-4.12-0.04-4.31-0.08c-0.04-0.01-0.23-0.01-0.41-0.01c-0.3,0.01-0.27,0.03,0.37,0.21c0.38,0.11,0.8,0.22,0.94,0.24
		c0.41,0.06,1.03,0.19,1.75,0.36c0.38,0.09,1.09,0.2,1.59,0.25c0.5,0.05,1.19,0.16,1.55,0.24c0.36,0.09,1.12,0.23,1.71,0.32
		c1.72,0.27,2.31,0.4,3.26,0.66c0.49,0.14,1.12,0.29,1.4,0.34c0.28,0.05,0.52,0.13,0.53,0.16c0.01,0.04-0.15,0.14-0.38,0.23
		c-0.5,0.19-1.05,0.44-1.38,0.62c-0.85,0.45-1.59,0.6-3.62,0.72c-0.42,0.03-0.92,0.07-1.1,0.11c-0.18,0.03-0.4,0.05-0.49,0.04
		C21.45,37.05,21.19,37.02,20.98,36.99L20.98,36.99z M25.89,28.44C25.66,28.23,25.22,28,25.05,28c-0.06,0-0.18-0.07-0.26-0.16
		c-0.08-0.09-0.25-0.18-0.38-0.21c-0.36-0.08-1.21-0.51-1.65-0.84c-0.22-0.16-0.55-0.39-0.74-0.5c-0.74-0.45-2.08-1.44-2.08-1.54
		c0-0.04-0.06-0.09-0.14-0.12c-0.08-0.03-0.35-0.24-0.59-0.46c-0.24-0.22-0.58-0.51-0.73-0.63c-0.68-0.51-3.49-3.46-3.89-4.08
		c-0.07-0.11-0.19-0.27-0.26-0.34c-0.07-0.07-0.25-0.28-0.41-0.48c-0.16-0.2-0.32-0.39-0.36-0.44c-0.07-0.08-0.3-0.37-0.71-0.92
		c-0.09-0.12,0.25-0.04,0.43,0.09c0.07,0.05,0.36,0.2,0.65,0.33c0.29,0.13,0.64,0.31,0.77,0.41c0.13,0.1,0.39,0.26,0.57,0.35
		c0.18,0.1,0.5,0.29,0.73,0.42c0.23,0.14,0.51,0.28,0.63,0.33c0.12,0.05,0.22,0.12,0.22,0.15c0,0.04,0.23,0.18,0.52,0.33
		c0.28,0.14,0.68,0.4,0.88,0.58c0.2,0.17,0.48,0.37,0.62,0.44c0.15,0.07,0.29,0.17,0.33,0.24c0.04,0.06,0.2,0.2,0.36,0.31
		c0.16,0.11,0.38,0.29,0.49,0.4c0.11,0.11,0.41,0.39,0.68,0.61c0.27,0.23,0.74,0.65,1.06,0.95c0.32,0.3,0.61,0.54,0.66,0.54
		c0.15,0,0.96,0.92,1.13,1.28c0.09,0.19,0.18,0.34,0.21,0.34c0.08,0,0.4,0.3,0.4,0.37c0,0.04,0.12,0.18,0.27,0.31
		c0.33,0.3,0.93,1.04,1.22,1.49c0.11,0.18,0.25,0.38,0.31,0.44c0.14,0.15,0.48,0.63,0.48,0.68C26.46,28.77,26.08,28.61,25.89,28.44
		L25.89,28.44z M27.62,27.1c-0.15-0.16-0.34-0.38-0.45-0.5c-0.11-0.12-0.32-0.39-0.49-0.62c-0.17-0.23-0.45-0.56-0.63-0.77
		c-0.18-0.19-0.45-0.53-0.57-0.73c-0.13-0.21-0.47-0.59-0.77-0.87c-0.29-0.27-0.53-0.54-0.53-0.61c0-0.13-0.85-1.84-0.98-1.97
		c-0.04-0.04-0.08-0.13-0.08-0.19c0-0.06-0.15-0.41-0.33-0.78c-0.18-0.37-0.4-0.91-0.48-1.2c-0.08-0.29-0.22-0.73-0.31-0.98
		c-0.09-0.24-0.18-0.65-0.2-0.9c-0.02-0.25-0.07-0.66-0.1-0.92c-0.04-0.34-0.03-0.47,0.04-0.47c0.06,0,0.08,0.03,0.05,0.07
		c-0.07,0.11,0.14,0.49,0.3,0.54c0.08,0.03,0.16,0.16,0.19,0.32c0.03,0.15,0.09,0.28,0.13,0.28c0.04,0,0.07,0.05,0.07,0.11
		c0,0.13,1,1.61,2.4,3.56c0.49,0.68,1.2,1.78,1.53,2.36c1.22,2.16,1.41,2.6,1.56,3.61c0.07,0.46,0.12,0.91,0.12,1.03
		c0,0.2-0.01,0.2-0.1,0.05C27.93,27.46,27.77,27.27,27.62,27.1L27.62,27.1z M16.14,23.91c-0.12-0.12-0.13-0.31-0.02-0.31
		c0.04,0,0.08,0.06,0.08,0.12s0.04,0.12,0.08,0.12c0.05,0,0.08,0.03,0.08,0.08C16.37,24.04,16.26,24.03,16.14,23.91L16.14,23.91z"/>
	<path class="st1" d="M67.88,39.14c0.45,0.09,0.45,0.09,0.45,0.03c0-0.04,0.19-0.07,0.42-0.07c1.34-0.01,2-0.1,2.39-0.31
		c0.22-0.12,0.61-0.31,0.87-0.43c0.26-0.12,0.47-0.25,0.47-0.28c0-0.03,0.1-0.09,0.22-0.12c0.12-0.03,0.43-0.22,0.67-0.42
		c0.74-0.6,0.98-0.8,1.16-0.96c0.1-0.09,0.27-0.21,0.39-0.27c0.12-0.06,0.43-0.33,0.69-0.59c0.26-0.26,0.51-0.48,0.54-0.48
		c0.08,0,0.43-0.36,0.75-0.77c0.13-0.17,0.38-0.46,0.55-0.65c0.17-0.19,0.31-0.38,0.31-0.42c0-0.08,0.59-0.7,1.14-1.18
		c0.15-0.14,0.24-0.29,0.24-0.43c0-0.2,0.14-0.37,0.73-0.88c0.21-0.18,0.21-0.42,0-0.85c-0.24-0.5-0.28-0.5-1.27-0.06
		c-0.79,0.35-1.03,0.44-1.55,0.61c-0.36,0.12-0.82,0.19-1.25,0.21c-0.62,0.02-0.72,0-1.15-0.21c-0.26-0.13-0.7-0.39-0.98-0.59
		c-0.68-0.47-1.45-0.89-2.11-1.15c-0.46-0.18-1.82-0.47-2.34-0.49c-0.26-0.01-0.23-0.08,0.14-0.32c0.18-0.12,0.33-0.25,0.33-0.3
		c0-0.05,0.02-0.08,0.06-0.07c0.12,0.03,0.51-0.21,0.51-0.31c0-0.05,0.09-0.12,0.2-0.15c0.11-0.03,0.2-0.08,0.2-0.13
		c0-0.04,0.04-0.08,0.09-0.08c0.1,0,1.13-0.74,1.13-0.81c0-0.03,0.24-0.23,0.53-0.46c0.28-0.22,0.53-0.43,0.53-0.47
		c0-0.03,0.28-0.33,0.61-0.65c0.33-0.32,0.61-0.62,0.61-0.66c0-0.09,0.57-0.63,0.66-0.63c0.04,0,0.07-0.07,0.07-0.16
		c0-0.09,0.05-0.16,0.11-0.16c0.06,0,0.29-0.19,0.51-0.42c0.21-0.23,0.48-0.5,0.58-0.59c0.1-0.09,0.18-0.2,0.18-0.24
		c0-0.04,0.08-0.15,0.19-0.25c0.22-0.21,0.89-0.96,1.22-1.36c0.13-0.15,0.22-0.34,0.22-0.42c0-0.08,0.07-0.16,0.16-0.18
		c0.09-0.02,0.24-0.17,0.33-0.33c0.1-0.16,0.21-0.29,0.25-0.29c0.04,0,0.07-0.08,0.07-0.19c0-0.12,0.09-0.25,0.24-0.36
		c0.24-0.18,0.66-0.81,0.69-1.04c0.01-0.07,0.1-0.22,0.2-0.33c0.1-0.12,0.28-0.39,0.41-0.63c1.08-2.01,1.08-2.02,1.04-2.25
		c-0.02-0.13-0.2-0.39-0.37-0.57c-0.18-0.18-0.33-0.38-0.33-0.44c0-0.06-0.09-0.18-0.2-0.24c-0.2-0.13-0.21-0.12-0.8,0.46
		c-0.65,0.64-0.94,0.87-1.08,0.87c-0.05,0-0.2,0.11-0.33,0.24s-0.28,0.24-0.33,0.24c-0.05,0-0.15,0.07-0.24,0.16
		c-0.08,0.09-0.22,0.18-0.32,0.21c-0.24,0.08-1.3,0.71-1.4,0.83c-0.08,0.1-0.31,0.24-1.42,0.81c-0.73,0.38-3.71,2.35-4.2,2.78
		c-0.19,0.16-0.57,0.43-0.88,0.61c-0.3,0.18-0.63,0.4-0.75,0.51c-0.11,0.1-0.23,0.19-0.25,0.19c-0.04,0,0.33-0.73,0.57-1.14
		c0.19-0.3,0.35-0.78,0.97-2.82c0.07-0.24,0.18-0.65,0.24-0.94c0.06-0.28,0.25-1.03,0.42-1.65c0.37-1.39,0.52-2.04,0.62-2.73
		c0.09-0.67,0.25-1.18,0.52-1.68c0.15-0.28,0.18-0.42,0.13-0.53c-0.05-0.1-0.04-0.22,0.02-0.36C72,8.82,72,8.76,71.91,8.71
		c-0.09-0.06-0.09-0.13,0.02-0.46C72,8.02,72.03,7.81,72,7.77c-0.03-0.05-0.06-0.02-0.08,0.06c-0.01,0.08-0.06,0.14-0.1,0.14
		c-0.1,0-0.1-0.06,0.01-0.26c0.05-0.09,0.07-0.18,0.05-0.2c-0.06-0.05-0.84,1.13-1.17,1.76c-0.4,0.77-1.09,1.61-2.72,3.34
		c-0.11,0.12-0.4,0.46-0.65,0.76c-0.25,0.3-0.62,0.72-0.82,0.93c-0.2,0.21-0.46,0.51-0.58,0.67c-0.11,0.15-0.3,0.38-0.4,0.5
		c-0.1,0.12-0.28,0.34-0.39,0.48c-0.11,0.14-0.34,0.42-0.49,0.59c-0.32,0.36-1.22,1.68-1.22,1.79c0,0.04-0.11,0.2-0.24,0.35
		c-0.13,0.15-0.24,0.35-0.24,0.44c0,0.09-0.04,0.16-0.08,0.16c-0.05,0-0.08,0.05-0.08,0.11c0,0.06-0.05,0.16-0.12,0.21
		c-0.07,0.05-0.14,0.22-0.17,0.37c-0.03,0.15-0.09,0.28-0.13,0.28c-0.04,0-0.07,0.03-0.07,0.08c0,0.04-0.09,0.27-0.2,0.51
		c-0.11,0.24-0.21,0.54-0.23,0.68c-0.04,0.27-0.16,0.62-0.4,1.16c-0.09,0.2-0.14,0.38-0.12,0.4c0.02,0.02-0.03,0.17-0.11,0.34
		c-0.08,0.16-0.19,0.5-0.25,0.74c-0.06,0.24-0.15,0.56-0.21,0.69c-0.3,0.69-0.83,3.92-0.73,4.47c0.07,0.4-0.04,0.61-0.48,0.93
		c-0.23,0.17-0.47,0.34-0.53,0.39c-0.09,0.07-0.83,0.73-1.2,1.08c-0.07,0.06-0.11,0.14-0.11,0.18c0,0.04-0.16,0.23-0.35,0.43
		c-0.19,0.2-0.55,0.57-0.79,0.83c-0.25,0.26-0.6,0.58-0.79,0.71c-0.19,0.13-0.35,0.28-0.35,0.32c0,0.04-0.16,0.19-0.37,0.34
		c-0.2,0.14-0.37,0.31-0.37,0.36c0,0.06-0.06,0.14-0.14,0.18c-0.13,0.07-0.12,0.1,0.13,0.32c0.36,0.31,0.79,0.42,2.03,0.5
		c1.12,0.08,2.87,0.39,4.21,0.75c0.99,0.27,1.13,0.34,1.35,0.71c0.18,0.3,0.5,0.52,0.76,0.52c0.13,0,0.18,0.04,0.15,0.11
		c-0.02,0.06,0,0.11,0.05,0.11c0.05,0,0.09-0.04,0.09-0.09s0.1-0.07,0.22-0.06c0.15,0.02,0.22,0.07,0.22,0.18
		c0,0.08,0.06,0.17,0.12,0.2c0.07,0.02,0.17,0.09,0.23,0.15c0.06,0.06,0.21,0.11,0.34,0.11s0.25,0.03,0.27,0.07
		c0.02,0.04,0.23,0.07,0.47,0.08c0.24,0.01,0.45,0.05,0.47,0.08c0.06,0.1,0.67,0.11,0.82,0.01c0.08-0.05,0.14-0.03,0.2,0.05
		c0.05,0.07,0.25,0.14,0.45,0.16C67.39,39.06,67.7,39.1,67.88,39.14L67.88,39.14z M69.25,36.99c-0.21,0.03-0.47,0.06-0.55,0.07
		c-0.09,0.01-0.31,0-0.49-0.04c-0.18-0.03-0.68-0.08-1.1-0.11c-2.03-0.12-2.77-0.27-3.62-0.72c-0.33-0.18-0.89-0.42-1.38-0.62
		c-0.23-0.09-0.4-0.19-0.38-0.23c0.01-0.04,0.26-0.11,0.53-0.16c0.28-0.05,0.91-0.21,1.4-0.34c0.95-0.27,1.54-0.39,3.26-0.66
		c0.59-0.09,1.35-0.24,1.71-0.32c0.36-0.09,1.05-0.19,1.55-0.24c0.5-0.05,1.2-0.16,1.59-0.25c0.72-0.17,1.34-0.3,1.75-0.36
		c0.14-0.02,0.55-0.13,0.94-0.24c0.63-0.18,0.67-0.2,0.37-0.21c-0.18-0.01-0.36,0-0.41,0.01c-0.19,0.04-3.27,0.1-4.31,0.08
		c-0.77-0.01-1.31,0.02-1.67,0.1c-0.29,0.07-0.84,0.13-1.22,0.13c-0.92,0.01-3.01,0.16-3.53,0.26c-0.23,0.04-0.54,0.1-0.7,0.12
		c-0.16,0.03-0.46,0.08-0.69,0.12c-0.78,0.15-1.41,0.22-2.56,0.28l-0.85,0.04l0.49-0.49c0.27-0.27,0.89-0.78,1.38-1.13
		c0.89-0.63,1.64-0.98,3.13-1.46c0.29-0.09,0.77-0.25,1.06-0.35c0.85-0.28,1.97-0.42,2.69-0.33c0.34,0.04,0.91,0.08,1.28,0.07
		c1.44-0.01,2.53,0.29,3.62,1.01c1.05,0.68,2.33,1.2,2.97,1.2c0.23,0,0.59,0.16,0.59,0.26c0,0.04-0.05,0.13-0.1,0.18
		c-0.06,0.06-0.34,0.38-0.63,0.71c-0.29,0.33-0.66,0.7-0.81,0.82c-2.03,1.55-2.07,1.58-2.97,1.97c-0.18,0.08-0.37,0.18-0.43,0.23
		C70.94,36.54,69.68,36.93,69.25,36.99L69.25,36.99z M64.34,28.44c-0.19,0.17-0.57,0.33-0.57,0.24c0-0.05,0.33-0.52,0.48-0.68
		c0.06-0.06,0.2-0.26,0.31-0.44c0.28-0.45,0.89-1.19,1.22-1.49c0.15-0.13,0.27-0.27,0.27-0.31c0-0.07,0.32-0.37,0.4-0.37
		c0.03,0,0.12-0.16,0.21-0.34c0.17-0.37,0.98-1.28,1.13-1.28c0.05,0,0.34-0.24,0.66-0.54c0.32-0.3,0.79-0.72,1.06-0.95
		c0.27-0.23,0.57-0.5,0.68-0.61c0.1-0.11,0.33-0.29,0.49-0.4c0.16-0.11,0.33-0.25,0.36-0.31c0.04-0.06,0.18-0.17,0.33-0.24
		c0.14-0.07,0.42-0.27,0.62-0.44c0.2-0.17,0.59-0.43,0.88-0.58c0.28-0.14,0.52-0.29,0.52-0.33c0-0.04,0.1-0.1,0.22-0.15
		c0.13-0.05,0.4-0.19,0.63-0.33c0.23-0.14,0.55-0.32,0.73-0.42c0.18-0.1,0.44-0.26,0.57-0.35c0.14-0.1,0.48-0.28,0.77-0.41
		c0.29-0.13,0.58-0.28,0.65-0.33c0.18-0.14,0.52-0.21,0.43-0.09c-0.42,0.55-0.65,0.84-0.71,0.92c-0.04,0.05-0.21,0.25-0.36,0.44
		c-0.16,0.2-0.34,0.41-0.41,0.48c-0.07,0.07-0.19,0.22-0.26,0.34c-0.4,0.62-3.22,3.57-3.89,4.08c-0.16,0.12-0.49,0.4-0.73,0.63
		c-0.24,0.22-0.51,0.43-0.59,0.46c-0.08,0.03-0.14,0.08-0.14,0.12c0,0.1-1.33,1.1-2.08,1.54c-0.19,0.11-0.52,0.34-0.74,0.5
		c-0.44,0.33-1.3,0.76-1.65,0.84c-0.13,0.03-0.3,0.12-0.38,0.21C65.35,27.93,65.24,28,65.18,28C65.01,28,64.57,28.23,64.34,28.44
		L64.34,28.44z M62.6,27.1c-0.15,0.16-0.3,0.36-0.36,0.45c-0.09,0.15-0.1,0.15-0.1-0.05c0-0.12,0.05-0.57,0.12-1.03
		c0.15-1.01,0.34-1.45,1.56-3.61c0.33-0.58,1.05-1.68,1.53-2.36c1.4-1.95,2.4-3.43,2.4-3.56c0-0.06,0.03-0.11,0.07-0.11
		c0.04,0,0.1-0.13,0.13-0.28c0.03-0.16,0.11-0.3,0.19-0.32c0.15-0.05,0.37-0.43,0.3-0.54c-0.03-0.04,0-0.07,0.05-0.07
		c0.07,0,0.08,0.13,0.04,0.47c-0.03,0.26-0.08,0.67-0.1,0.92c-0.02,0.24-0.12,0.65-0.2,0.9c-0.09,0.25-0.23,0.68-0.31,0.98
		c-0.08,0.29-0.3,0.83-0.48,1.2c-0.18,0.37-0.33,0.72-0.33,0.78c0,0.06-0.04,0.15-0.08,0.19c-0.13,0.13-0.98,1.84-0.98,1.97
		c0,0.06-0.24,0.33-0.53,0.61c-0.29,0.27-0.63,0.66-0.77,0.87c-0.13,0.2-0.39,0.54-0.57,0.73c-0.19,0.2-0.47,0.54-0.63,0.77
		c-0.17,0.23-0.38,0.5-0.49,0.62C62.95,26.72,62.75,26.94,62.6,27.1L62.6,27.1z M74.09,23.91c-0.12,0.12-0.23,0.13-0.23,0.02
		c0-0.05,0.03-0.08,0.08-0.08c0.04,0,0.08-0.06,0.08-0.12s0.04-0.12,0.08-0.12C74.22,23.6,74.21,23.79,74.09,23.91L74.09,23.91z"/>
	<g>
		<path class="st1" d="M62.79,77.47c-0.89,0.17-1,0.91-1.16,8.31c-0.12,5.43-0.38,8.32-0.79,8.74c-1.36,1.39-1.85-0.45-2.25-8.4
			c-0.39-7.85-0.41-7.9-1.64-8.07l-1.24-0.17l0.36,7.23c0.21,4.29,0.63,7.73,1.03,8.47c1.6,2.93,4.17,3.27,5.49,0.72
			c0.66-1.28,0.9-3.45,1.02-9.34C63.77,77.67,63.72,77.29,62.79,77.47L62.79,77.47z"/>
		<path class="st1" d="M78.02,93.73c-0.06-0.71-0.35-3.55-0.63-6.26c-0.66-6.36-0.55-8.59,0.4-8.52c0.41,0.03,0.84-0.22,1-0.58
			c0.2-0.46-0.68-0.69-3.26-0.84c-3.2-0.2-3.44-0.14-2.58,0.6c0.54,0.46,1.13,0.83,1.37,0.84c0.4,0.03,0.43,0.34,1.07,9.66
			c0.29,4.16,0.69,6.48,1.21,6.94c0.73,0.65,1.7,0.55,1.59-0.17C78.16,95.2,78.09,94.46,78.02,93.73L78.02,93.73z"/>
		<path class="st1" d="M69.68,94.43c-2.03-1.73-2.58-4.29-2.03-9.33c0.45-4.16,0.62-4.64,2.12-5.99l1.63-1.47l-1.86-0.13
			c-1.55-0.11-2.06,0.16-3.1,1.6c-1.48,2.05-2.11,8.25-1.14,11.11c0.81,2.39,2.85,5.13,4.13,5.56
			C70.95,96.29,71.07,95.62,69.68,94.43L69.68,94.43z"/>
		<path class="st1" d="M53.69,81.78c-1.09-2.06-2.12-2.85-5.15-3.94l-1.21-0.43l0.13,3.58c0.47,12.98,0.6,14.28,1.46,14.84
			c1.86,1.21,4.69-3.18,5.45-8.46C54.79,84.39,54.71,83.72,53.69,81.78L53.69,81.78z M51.46,89.86c-0.25,1.02-0.61,1.88-0.79,1.86
			c-0.19-0.01-0.46-2.47-0.61-5.48c-0.15-3.01-0.39-5.87-0.52-6.38c-0.23-0.84-0.18-0.85,0.57-0.04
			C51.88,81.72,52.43,85.84,51.46,89.86L51.46,89.86z"/>
		<path class="st1" d="M45.02,83.09c-0.43-3.14-1.11-4.35-2.92-5.26c-3.3-1.66-5.38,1.12-5.33,7.13c0.04,5.13,0.66,7.69,2.32,9.59
			c1.59,1.82,2.39,1.96,4.15,0.73c1.13-0.79,1.29-1.32,1.67-5.44C45.14,87.32,45.19,84.31,45.02,83.09L45.02,83.09z M41.72,94.06
			c-1.21,1.64-2.29-0.88-2.74-6.4c-0.24-2.97-0.12-4.09,0.72-6.43c1.18-3.29,2.02-3.28,2.66,0.03
			C42.88,83.98,42.43,93.09,41.72,94.06L41.72,94.06z"/>
		<path class="st1" d="M36.53,94.65c-1.43-2.38-3.14-4.98-3.79-5.78l-1.2-1.45L32.76,86c1.67-1.96,2.26-4.84,1.33-6.49
			c-0.79-1.39-3.88-2.86-5.65-2.69c-1.04,0.1-1.04,0.1-0.66,8.94c0.38,8.78,0.66,10.15,2.09,10.24c0.63,0.04,0.75-0.49,0.64-2.93
			c-0.07-1.66-0.23-3.45-0.35-4.04c-0.33-1.58,0.43-0.59,4.02,5.25c1.73,2.81,3.51,5.18,3.99,5.31
			C39.54,99.94,39.33,99.29,36.53,94.65L36.53,94.65z M31.3,84.5c-0.35,0.75-0.81,1.14-1.03,0.86c-0.52-0.66-0.76-7.51-0.25-7.48
			c0.19,0.01,0.8,0.47,1.28,0.97C32.29,79.86,32.29,82.39,31.3,84.5L31.3,84.5z"/>
		<path class="st1" d="M24.43,78.98c-1.34-1.53-2.02-1.9-3.77-2.02l-2.14-0.15l0.1,3.79c0.46,16.92,0.33,15.65,1.66,15.94
			c1.22,0.26,1.22,0.24,1.17-3.44c-0.06-3.58,0-3.77,1.6-5.36C26.23,84.59,26.7,81.58,24.43,78.98L24.43,78.98z M21.93,86.11
			c-0.55,0.85-0.67,0.58-0.79-1.87c-0.08-1.56-0.26-3.62-0.4-4.53c-0.32-2.09,0.8-2.34,1.99-0.43
			C23.56,80.6,23.13,84.27,21.93,86.11L21.93,86.11z"/>
	</g>
</g>
</svg>
